<?xml version="1.0" encoding="UTF-8" ?>
<svg
    width="166px"
    height="20px"
    viewBox="0 0 166 22"
    version="1.1"
    xmlns="http://www.w3.org/2000/svg"
    xmlns:xlink="http://www.w3.org/1999/xlink"
>
    <!-- Generator: Sketch 50.2 (55047) - http://www.bohemiancoding.com/sketch -->
    <title>Logo/Checkdomain/Checkdomain-Logo-Color</title>
    <desc>Created with Sketch.</desc>
    <defs />
    <g id="Logo/Checkdomain/Checkdomain-Logo-Color" stroke="none" stroke-width="1" fill="none" fill-rule="evenodd">
        <g fill-rule="nonzero" id="Shape">
            <path
                d="M83.717469,11.6164909 C83.710034,11.8243493 83.6975953,12.0319991 83.6801637,12.2392599 C83.6643155,12.4284679 83.6429786,12.617177 83.6161799,12.8051494 C83.5918988,12.975881 83.5616409,13.1457109 83.5254616,13.314327 C83.4919545,13.470154 83.4513633,13.6243763 83.403814,13.7765148 C83.3587575,13.920802 83.3064147,14.0627169 83.2469865,14.2017141 C83.1902272,14.334523 83.1261452,14.464088 83.055035,14.5898133 C82.9863515,14.7112224 82.9105074,14.8284473 82.8279036,14.9408681 C82.746298,15.0563016 82.6582947,15.167086 82.5643059,15.2727024 C82.4731475,15.3751142 82.3759749,15.4720213 82.2733026,15.5629108 C82.0715223,15.7415508 81.8484025,15.894577 81.6090229,16.0185054 C81.5382385,16.0551268 81.4660326,16.0889382 81.3925741,16.1198605 C81.3558841,16.1353375 81.3189144,16.150144 81.2816092,16.164336 C81.2443598,16.178472 81.2068309,16.1920494 81.1690222,16.2050121 C81.057693,16.2465652 80.9443048,16.28239 80.8293039,16.3123456 C80.7049934,16.3448424 80.5792625,16.3716524 80.452504,16.392692 C80.3173483,16.4152578 80.1812987,16.4321095 80.044719,16.4432019 C79.9009589,16.4548731 79.7567825,16.4606887 79.6125485,16.4606345 C79.4803861,16.4606345 79.3505728,16.4558294 79.2240593,16.4465544 C79.1004895,16.437559 78.9773011,16.4239348 78.854754,16.4057106 C78.7387542,16.3884787 78.6234851,16.3666521 78.509219,16.3402825 C78.4022266,16.3156307 78.2963623,16.286325 78.1919286,16.2524489 C78.0904162,16.222897 77.9903579,16.1885709 77.8920883,16.1495853 C77.8431587,16.1301517 77.7947267,16.1094905 77.7468383,16.0876213 C77.4535272,15.9535487 77.1817656,15.7767176 76.9404407,15.5629108 C76.8377637,15.4720075 76.7405733,15.3751013 76.6493814,15.2727024 C76.5554277,15.1670711 76.4674438,15.0562877 76.3858396,14.9408681 C76.3032359,14.8284473 76.2273917,14.7112224 76.1587082,14.5898133 C76.0875795,14.464089 76.0234788,14.334524 75.9667008,14.2017141 C75.9072914,14.062716 75.8549672,13.920801 75.8099292,13.7765148 C75.76238,13.6243763 75.7217887,13.470154 75.6882817,13.314327 C75.652083,13.1457117 75.6218063,12.9758818 75.5975074,12.8051494 C75.5707363,12.6171735 75.5493995,12.4284652 75.5335236,12.2392599 C75.5161114,12.0319986 75.5036914,11.8243489 75.4962743,11.6164909 C75.4881284,11.3900926 75.4846041,11.1635519 75.4857035,10.9370101 C75.4847527,10.7013904 75.4882763,10.4755486 75.4962743,10.259373 C75.5042163,10.0431974 75.5166887,9.83668801 75.5335236,9.63995648 C75.5504144,9.44322496 75.5717237,9.25621546 75.5975074,9.07887214 C75.6217457,8.91022188 75.6520232,8.74249306 75.6882817,8.57600825 C75.7218499,8.42225793 75.7624416,8.27012225 75.8099292,8.12007834 C75.855065,7.97738013 75.9073888,7.83705122 75.9667008,7.69962826 C76.0235946,7.56794181 76.0876938,7.43948035 76.1587082,7.31482564 C76.2275151,7.19406538 76.3033559,7.07744264 76.3858396,6.96555874 C76.4674438,6.85013918 76.5554277,6.73935575 76.6493814,6.63372445 C76.7405589,6.53131193 76.8377501,6.43440488 76.9404407,6.34351612 C77.0413721,6.25419139 77.1477093,6.1711551 77.2588497,6.09487786 C77.5835043,5.87213435 77.9459879,5.71020573 78.3286213,5.61698956 C78.4138694,5.59609992 78.4998763,5.57843124 78.5864582,5.56402123 C78.6660715,5.54907551 78.7460377,5.53607168 78.8262857,5.52502134 C78.9097389,5.51348572 78.9934518,5.50391004 79.0773551,5.49630222 C79.2536356,5.48026248 79.4305606,5.47232003 79.6075708,5.4725 C79.6990162,5.4725 79.7892871,5.47456733 79.8781038,5.47859024 C79.9669764,5.48266903 80.0543949,5.48864752 80.1401914,5.49652572 C80.2259319,5.50434805 80.3100505,5.51407008 80.3922675,5.52546833 C80.4744845,5.53686658 80.5548558,5.55005279 80.6330458,5.56485933 C80.7197931,5.57944239 80.8051981,5.59715437 80.8892608,5.61788354 C80.9733235,5.6386127 81.0560438,5.66241493 81.1373659,5.68934608 C81.2995909,5.74298188 81.457304,5.80938169 81.6090229,5.88792144 C81.8484525,6.01176655 82.0715822,6.16479952 82.2733026,6.34351612 C82.3759885,6.43439116 82.4731619,6.53129907 82.5643059,6.63372445 C82.6582947,6.7393409 82.746298,6.85012527 82.8279036,6.96555874 C82.9103874,7.07744264 82.9862282,7.19406538 83.055035,7.31482564 C83.126031,7.43948127 83.1901116,7.56794275 83.2469865,7.69962826 C83.3063173,7.83705023 83.3586598,7.97737915 83.403814,8.12007834 C83.4513017,8.27012225 83.4918933,8.42225793 83.5254616,8.57600825 C83.5601381,8.73390751 83.5903962,8.90152881 83.6161799,9.07887214 C83.6419636,9.25621546 83.6633288,9.44322496 83.6801637,9.63995648 C83.6970546,9.83668801 83.709471,10.0431974 83.717469,10.259373 C83.725467,10.4755486 83.7289906,10.7013904 83.7280398,10.9370101 C83.7289906,11.172965 83.725467,11.3994772 83.717469,11.6164909 Z M86.4032796,0 L83.9831361,0 L83.9831361,3.8317669 C83.9756974,3.82612365 83.9685943,3.81997754 83.9611557,3.81439016 C83.818266,3.70709021 83.6700097,3.60711483 83.5169602,3.51485091 C83.4407029,3.46897752 83.36327,3.4250833 83.2847392,3.38321232 C83.1369685,3.30431276 82.9864208,3.23071724 82.8333848,3.16256682 C82.6823388,3.09529998 82.5288964,3.03353736 82.3733612,2.97740117 C82.064953,2.8661892 81.748765,2.77781865 81.4273625,2.71300651 C81.3026388,2.68395216 81.1704764,2.65785911 81.0321058,2.63500674 C80.888319,2.61146683 80.7438858,2.59205203 80.5989845,2.57678628 C80.4444301,2.56051912 80.2894673,2.54839016 80.1342628,2.54041246 C79.8459678,2.52554567 79.5571444,2.52381179 79.2686914,2.53521619 C79.1456456,2.54007721 79.0249488,2.54728493 78.9070485,2.55667172 C78.7890923,2.56611439 78.6739885,2.57773613 78.5620168,2.59136933 C78.4501011,2.6050584 78.3413733,2.62075893 78.2363369,2.63835916 C78.0360108,2.664657 77.8369769,2.69998664 77.6398443,2.74423995 C77.4430509,2.78846443 77.2483801,2.84163706 77.0564394,2.90359192 C76.863244,2.96594732 76.6729634,3.03697923 76.4861779,3.11647097 C76.2966269,3.19717765 76.1107224,3.28617751 75.929004,3.38321232 C75.6719663,3.52035648 75.4268819,3.67877251 75.1963221,3.85679835 C74.9602259,4.03936681 74.7390859,4.2404612 74.5350067,4.45816768 C74.3264441,4.67993065 74.1297385,4.92298153 73.9449461,5.18732031 C73.7601536,5.45165909 73.5871624,5.73728577 73.4261402,6.04425623 C73.265062,6.35117082 73.1234474,6.68328448 73.0014084,7.04065308 C72.8793133,7.3979658 72.7767379,7.78053347 72.6936819,8.18824433 C72.610626,8.59595519 72.5470337,9.02892099 72.5029609,9.48702999 C72.4588881,9.94519486 72.434279,10.4285029 72.4292453,10.9370101 C72.434279,11.4456289 72.4588881,11.9292722 72.5029609,12.3878282 C72.5470337,12.8463842 72.610626,13.2798529 72.6936819,13.6882901 C72.7767379,14.0967832 72.8793133,14.4801331 73.0014084,14.8384515 C73.1234474,15.19677 73.265062,15.530057 73.4261402,15.8382567 C73.5871624,16.1464564 73.7601536,16.433424 73.9449461,16.6990479 C74.1297385,16.9646718 74.3264441,17.2090077 74.5350067,17.4320558 C74.7390447,17.6509835 74.9601795,17.8533624 75.1963221,18.0372804 C75.4268117,18.2165365 75.6718916,18.3762392 75.929004,18.5147218 C76.1557639,18.6370353 76.3891456,18.7466793 76.6280721,18.8431477 C76.8630748,18.9379839 77.103313,19.0193198 77.3476105,19.0867574 C77.5909057,19.1538617 77.8376125,19.206886 78.0877311,19.2457741 C78.3378497,19.2846622 78.5913801,19.3095261 78.8483221,19.3202538 C78.9721619,19.328844 79.0961393,19.3353263 79.2202001,19.3396979 C79.2835128,19.3419328 79.3475526,19.3435532 79.4120957,19.3446707 C79.5424389,19.3470412 79.6728145,19.3470412 79.8031577,19.3446707 C79.9915629,19.3414672 80.1798511,19.3333068 80.3678261,19.3201979 C80.6245445,19.3093584 80.8778511,19.2844387 81.127746,19.2454947 C81.3771006,19.2066989 81.6240113,19.1535867 81.8672513,19.0864221 C82.1113715,19.0189876 82.3514402,18.9376895 82.5862864,18.8429242 C82.8249984,18.7465066 83.0581741,18.6369375 83.2847392,18.5147218 C83.452354,18.4244671 83.6148369,18.3250086 83.7714414,18.2168028 C83.8502145,18.162361 83.9275366,18.105853 84.0033268,18.0473377 L84.003998,18.046779 L84.003998,19.1899562 L87.2211988,19.1899562 L87.2211988,0 L86.4032796,0 Z M141.002514,13.3022024 C141.003297,13.8798812 140.946696,14.3671563 140.833214,14.7635248 C140.719341,15.1599492 140.54484,15.4781503 140.308983,15.7175694 C139.888502,16.1228776 139.436756,16.3832494 138.953186,16.4986846 C138.46984,16.6141198 137.923516,16.6650767 137.313936,16.6516111 C136.308931,16.6476999 135.568139,16.446275 135.091169,16.0476716 C134.614311,15.6491799 134.377895,15.0774236 134.381754,14.3326822 C134.383096,13.5866557 134.62477,13.0095915 135.107053,12.6016571 C135.589113,12.1937228 136.30373,11.9869898 137.250735,11.9816818 L141.002522,11.9816818 L141.002514,13.3022024 Z M144.212444,19.1899562 L144.212444,8.28373259 C144.211885,6.43090268 143.662206,5.03517604 142.563406,4.09660855 C141.464719,3.15809692 139.81982,2.68786332 137.629213,2.68596361 C136.326046,2.67121294 135.228253,2.83726977 134.33578,3.18402235 C133.443418,3.53077493 132.629973,4.14672731 131.895781,5.031656 L134.004171,7.05970603 C134.425547,6.4866647 134.898211,6.07873035 135.42233,5.83584709 C135.946338,5.59290796 136.63998,5.4748467 137.503091,5.48155155 C138.738527,5.48021058 139.633014,5.73242475 140.18672,6.23847344 C140.740427,6.74441038 141.01247,7.51206003 141.002514,8.54147827 L141.002514,9.7010265 L136.77796,9.7010265 C134.949275,9.72566684 133.573902,10.1662315 132.651674,11.0228322 C131.729278,11.879377 131.267632,13.0041717 131.266346,14.3972164 C131.267744,15.0950797 131.375241,15.7441653 131.588838,16.3449759 C131.802714,16.9456747 132.114803,17.465636 132.52516,17.9048037 C133.00627,18.4021361 133.594037,18.7729703 134.288295,19.0174739 C134.982553,19.2616981 135.822956,19.3835588 136.809392,19.3827766 C137.782796,19.3875817 138.594675,19.2576193 139.244861,18.9932247 C139.895158,18.7287183 140.502053,18.301731 141.065491,17.7119834 L141.065491,19.1899562 L144.212444,19.1899562 Z M150.158074,2.87571092 L146.895682,2.87571092 L146.895682,19.1897327 L150.158074,19.1897327 L150.158074,2.87571092 Z M165.962135,19.1897327 L165.962135,8.76480571 C165.971867,7.84668801 165.858497,7.00327353 165.622361,6.23433878 C165.386057,5.46557165 164.968093,4.77547479 164.368524,4.16415993 C163.897147,3.69487618 163.331751,3.33203195 162.672282,3.07557137 C162.012812,2.81927841 161.274761,2.68926016 160.458352,2.68596361 C159.65229,2.68596361 158.885267,2.83855486 158.157563,3.14384911 C157.429579,3.44914336 156.787951,3.90708474 156.232231,4.51767324 L156.232231,2.8787281 L153.107594,2.8787281 L153.107594,19.1897327 L156.294817,19.1897327 L156.294817,9.24761091 C156.320209,7.99760304 156.645106,7.07747389 157.269228,6.48739106 C157.89335,5.89725236 158.664176,5.60486495 159.581762,5.61022883 C160.495433,5.60285349 161.250711,5.89127387 161.847539,6.47532233 C162.444199,7.05942666 162.753268,7.98352285 162.774857,9.24761091 L162.774857,19.1897327 L165.962135,19.1897327 Z M36.3231267,9.7010265 L36.3231267,9.70097063 L35.7831792,9.70097063 L35.7831792,9.7010265 L32.1089751,9.7010265 C32.1203848,9.21788606 32.1539427,8.81520384 32.2096489,8.49309159 C32.2653551,8.17109108 32.3713423,7.83283131 32.5277224,7.4784799 C32.792159,6.85721951 33.2055371,6.36066936 33.7679124,5.98888533 C33.8523524,5.93326388 33.9393837,5.88167176 34.0287136,5.83428263 C34.4804036,5.54720322 35.2021233,5.36131121 36.0154562,5.36131121 C36.7358895,5.36131121 37.3842291,5.50725348 37.8368699,5.74013533 C37.9916891,5.81081715 38.1404724,5.89401025 38.2817365,5.98888533 C38.8346597,6.36066936 39.2426685,6.85721951 39.5057628,7.4784799 C39.6634852,7.83283131 39.7748416,8.17109108 39.8399441,8.49309159 C39.9050465,8.81520384 39.9439737,9.21788606 39.9567257,9.7010265 L36.3231267,9.7010265 Z M43.2101691,10.5361158 C43.1954596,8.18092487 42.5887877,6.29300623 41.3902096,4.87258339 C40.5753106,3.90686124 39.5274636,3.26123989 38.2472278,2.93482536 C37.6120876,2.74323422 36.83606,2.63014572 35.997223,2.63014572 C34.8725842,2.63014572 33.8601408,2.83291161 33.1503342,3.15670008 C32.21994,3.51926494 31.4196947,4.09085355 30.7502136,4.87241577 C29.5165115,6.31284142 28.8862372,8.36134125 28.8595586,11.018027 C28.9097278,14.0842116 29.6217156,16.2548515 30.99569,17.5298349 C31.7367615,18.2176409 32.583093,18.7136324 33.5341813,19.018759 C34.1461664,19.2702468 35.22869,19.4375329 36.4629515,19.4375329 C37.5296469,19.4375329 38.483308,19.3125432 39.1176651,19.1163146 C39.5118592,19.0180326 39.8764663,18.8929871 40.2103679,18.7401724 C41.1438383,18.3130733 42.0149468,17.6810852 42.8236375,16.8443197 L40.729845,14.880301 C40.1721678,15.4573094 39.5963693,15.881503 39.0025054,16.1524907 C38.9387414,16.181405 38.8741326,16.2084225 38.8087642,16.2335077 C38.259812,16.4616403 37.4972635,16.6031685 36.6538403,16.6031685 C35.9841914,16.6031685 35.3657183,16.5138822 34.8644185,16.3629672 C34.1837513,16.1662916 33.6232217,15.8188126 33.18406,15.3191335 C32.4733585,14.510696 32.1150155,13.3981376 32.1089751,11.9816818 L43.2101691,11.9816818 L43.2101691,10.5361158 Z"
                fill="#066DB6"
            />
            <path
                d="M66.6685195,9.28264376 L72.280248,2.87906334 L68.326562,2.87906334 L62.0451846,10.4089471 L62.0451846,5.58737646e-05 L58.7968868,5.58737646e-05 L58.7968868,19.1897886 L62.0451846,19.1897886 L62.0451846,14.3990603 L64.4365243,11.6639277 L68.964219,19.1897886 L72.981721,19.1897886 L66.6685195,9.28264376 Z M25.752372,4.34960495 C24.804192,3.26855936 23.4368174,2.71401224 21.6499683,2.68596361 C20.8580007,2.68596361 20.1113363,2.83855486 19.4098632,3.14384911 C18.708502,3.44914336 18.0798497,3.90708474 17.5240741,4.51767324 L17.5240741,0 L14.3175,0 L14.3175,19.1897327 L17.5240741,19.1897327 L17.5240741,9.18324433 C17.5470613,7.96407878 17.863345,7.06277909 18.4729811,6.47940111 C19.0824495,5.89591139 19.8474589,5.60620592 20.7681213,5.6102847 C21.6873295,5.60419446 22.4471934,5.88982115 23.0475451,6.4672765 C23.6480088,7.04467599 23.9589791,7.9499986 23.980624,9.18324433 L23.980624,19.1897327 L27.187254,19.1897327 L27.187254,8.66819997 C27.1788086,6.87018222 26.7005519,5.43070642 25.752372,4.34960495 Z M53.9048086,16.0426988 C53.4658706,16.280274 52.9569084,16.3968267 52.3784811,16.393586 L51.4276725,16.393586 C51.4212965,16.393586 51.4152001,16.3939771 51.4088241,16.3939213 C50.8206651,16.3917422 50.2868699,16.2667526 49.8074946,16.0185054 C49.3280633,15.7703142 48.9217884,15.41099 48.5886139,14.9408681 C48.2623747,14.4975098 48.0298181,13.9553667 47.8911119,13.314327 C47.7522379,12.6732873 47.6847864,11.8808856 47.6884778,10.9370101 C47.6847864,9.99464314 47.7522379,9.20766116 47.8911119,8.57600825 C48.0298181,7.94441122 48.2623747,7.40757609 48.5886139,6.96555874 C48.9217884,6.49538101 49.3280633,6.1361127 49.8074946,5.88792144 C50.2868699,5.6396743 50.8206651,5.51457294 51.4088241,5.51261736 C51.4152001,5.51256149 51.4212965,5.51295261 51.4276725,5.51289673 L52.3784811,5.51289673 C52.9569084,5.50948843 53.4658706,5.62615285 53.9048086,5.8637281 C54.3486685,6.10381767 54.8036024,6.5034827 55.270002,7.06244385 L57.3701146,4.86794587 C56.6626011,4.05341813 55.9100081,3.46646423 55.1124474,3.10719592 C54.3197527,2.75016257 53.4083187,2.5743837 52.3784811,2.57952409 L51.4276725,2.57952409 C51.4213524,2.57952409 51.4151442,2.57941234 51.4088241,2.57946822 C50.2484461,2.56896395 49.1560788,2.83693452 48.1317783,3.38321232 C47.1074218,3.92943424 46.2731712,4.81648613 45.6289704,6.04425623 C44.9846018,7.27197046 44.6523221,8.90298153 44.6320755,10.9370101 C44.6523221,12.9715973 44.9846018,14.6054579 45.6289704,15.8382567 C46.2731712,17.071223 47.1074218,17.9633036 48.1317783,18.5147218 C49.1560788,19.0662517 50.2484461,19.3369601 51.4088241,19.3269028 C51.4151442,19.3269587 51.4213524,19.326791 51.4276725,19.326791 L52.3784811,19.326791 C53.4083187,19.3305905 54.3197527,19.1494477 55.1124474,18.7831393 C55.9100081,18.4144283 56.6626011,17.8221664 57.3701146,17.0061301 L55.270002,14.843983 C54.8036024,15.4030559 54.3486685,15.8026092 53.9048086,16.0426988 Z M9.27273315,16.0985726 C8.83379515,16.3361478 8.32483288,16.4527005 7.74640566,16.4494598 L6.79559704,16.4494598 C6.78922102,16.4494598 6.78312466,16.4498509 6.77674865,16.449795 C6.18858962,16.447616 5.65479447,16.3226263 5.17541914,16.0743792 C4.69598787,15.8261879 4.28971294,15.4668638 3.95653841,14.9967419 C3.63029919,14.5533836 3.39774259,14.0112405 3.25903639,13.3702008 C3.1201624,12.7291611 3.05271092,11.9367593 3.05640229,10.9928838 C3.05271092,10.0505169 3.1201624,9.26353493 3.25903639,8.63188202 C3.39774259,8.00028498 3.63029919,7.46344985 3.95653841,7.0214325 C4.28971294,6.55125477 4.69598787,6.19198647 5.17541914,5.9437952 C5.65479447,5.69554807 6.18858962,5.57044671 6.77674865,5.56849113 C6.78312466,5.56843525 6.78922102,5.56882637 6.79559704,5.5687705 L7.74640566,5.5687705 C8.32483288,5.5653622 8.83379515,5.68202662 9.27273315,5.91960186 C9.71659299,6.15969143 10.171527,6.55935647 10.6379265,7.11831761 L12.7380391,4.92381963 C12.0305256,4.10929189 11.2779326,3.52233799 10.480372,3.16306969 C9.68767722,2.80603633 8.77624326,2.63025747 7.74640566,2.63539785 L6.79559704,2.63539785 C6.78927695,2.63539785 6.78306873,2.63528611 6.77674865,2.63534198 C5.61637062,2.62483771 4.52400337,2.89280829 3.49970283,3.43908608 C2.47534636,3.98530801 1.64109569,4.87235989 0.996894879,6.10013 C0.35252628,7.32784423 0.0202466307,8.95885529 0,10.9928838 C0.0202466307,13.0274711 0.35252628,14.6613317 0.996894879,15.8941304 C1.64109569,17.1270968 2.47534636,18.0191773 3.49970283,18.5705955 C4.52400337,19.1221254 5.61637062,19.3928338 6.77674865,19.3827766 C6.78306873,19.3828324 6.78927695,19.3826648 6.79559704,19.3826648 L7.74640566,19.3826648 C8.77624326,19.3864642 9.68767722,19.2053215 10.480372,18.8390131 C11.2779326,18.4703021 12.0305256,17.8780402 12.7380391,17.0620039 L10.6379265,14.8998568 C10.171527,15.4589297 9.71659299,15.858483 9.27273315,16.0985726 Z M129.075627,6.23433878 C128.810239,5.46551578 128.373818,4.77547479 127.766307,4.16410405 C127.287883,3.69482031 126.703024,3.33203195 126.011562,3.07557137 C125.319989,2.81922254 124.561299,2.68926016 123.73555,2.68596361 C122.683788,2.68456677 121.746402,2.88012494 120.92317,3.27235877 C120.100105,3.66470435 119.368038,4.26182727 118.726746,5.06389516 C118.221699,4.27590746 117.588348,3.68275157 116.826974,3.2844275 C116.065712,2.88610344 115.187668,2.6866341 114.192955,2.68596361 C113.379734,2.68797507 112.603706,2.8446451 111.865152,3.15591785 C111.519508,3.30124008 111.189744,3.48169343 110.881065,3.69442919 L106.793538,7.77785153 L106.793538,19.1897327 L110.001958,19.1897327 L110.001958,9.24755503 C110.02763,7.99760304 110.35454,7.07747389 110.982745,6.48733519 C111.61123,5.89725236 112.386978,5.60480907 113.310716,5.61022883 C114.230484,5.60285349 114.990795,5.89121799 115.591482,6.47532233 C116.19217,7.05942666 116.503364,7.98352285 116.525121,9.24755503 L116.525121,19.1897327 L119.733485,19.1897327 L119.733485,9.08663859 C119.76296,7.9137924 120.097756,7.04065308 120.737818,6.46722063 C121.377936,5.89384406 122.146077,5.6081615 123.042299,5.61022883 C123.96201,5.60285349 124.722154,5.89121799 125.322897,6.47532233 C125.92364,7.05942666 126.234834,7.98352285 126.256423,9.24755503 L126.256423,19.1897327 L129.465044,19.1897327 L129.464843,8.76480571 C129.470883,7.84668801 129.341014,7.00327353 129.075627,6.23433878 Z M104.715686,9.85367363 L101.470576,13.0955253 C101.451134,13.2425951 101.428945,13.3892893 101.40402,13.5355312 C101.267998,14.3215075 100.967487,14.9707606 100.502429,15.4829554 C100.207735,15.7895906 99.8685755,16.0215785 99.4848403,16.1791425 C99.1011611,16.3368742 98.6768208,16.4159914 98.2117635,16.416606 C98.2060027,16.416606 98.2005216,16.4162708 98.1947608,16.4162708 L98.1947608,16.4163825 L95.5648241,16.4163825 L95.5648241,16.4164384 C95.5596226,16.4164943 95.554533,16.4167178 95.5492756,16.4167736 C95.0842183,16.4145946 94.659878,16.3301134 94.2762547,16.1630509 C93.8924636,15.9961559 93.5533046,15.7588601 93.2586098,15.4509397 C92.7935526,14.9385773 92.4930411,14.2893242 92.3570195,13.5034597 C92.220998,12.7173717 92.1604818,11.8750747 92.1751914,10.9764011 C92.1604818,10.0778392 92.220998,9.23554217 92.3570195,8.44945418 C92.4930411,7.66347793 92.7935526,7.01422479 93.2586098,6.50197411 C93.5533046,6.19539477 93.8924636,5.9634069 94.2762547,5.80578701 C94.659878,5.64811124 95.0842183,5.56899399 95.5492756,5.56837938 C95.5550364,5.56837938 95.5605735,5.56871462 95.5662783,5.5687705 L95.5662783,5.56837938 L98.1947608,5.56837938 L98.1947608,5.56860288 C98.2005216,5.568547 98.2060027,5.56821176 98.2117635,5.56815588 C98.6768208,5.57033496 99.1011611,5.65487197 99.4848403,5.82187865 C99.4869097,5.82277263 99.4888673,5.82383423 99.4909367,5.82472821 L101.714039,3.60385782 C101.473588,3.45309539 101.223849,3.31764873 100.966312,3.19832603 C100.19543,2.84084569 99.2772844,2.6561829 98.2117635,2.64405829 C98.2060586,2.64411416 98.2004656,2.64433766 98.1947608,2.6444494 L98.1947608,2.64405829 L95.5648241,2.64405829 L95.5648241,2.64428178 C95.5596417,2.64417895 95.5544588,2.64410445 95.5492756,2.64405829 C94.4838106,2.65612702 93.5656092,2.84090156 92.7947271,3.19838191 C92.0237891,3.55591813 91.3847338,4.01380363 90.8774495,4.57215016 C90.1513673,5.37142436 89.6570027,6.2977555 89.3942999,7.35119946 C89.131653,8.40458754 89.0080478,9.61296945 89.0235404,10.9764011 C89.0080478,12.3553097 89.131653,13.5731343 89.3942999,14.6298189 C89.6570027,15.6865594 90.1513673,16.6142874 90.8774495,17.412947 C91.3847338,17.9711818 92.023845,18.429179 92.7947271,18.7866035 C93.5656092,19.1441397 94.4838106,19.3288025 95.5492756,19.3408712 L95.5648241,19.3405919 L95.5648241,19.3406477 L98.1947608,19.3406477 L98.2117635,19.3408712 C99.2772844,19.3288584 100.19543,19.1440838 100.966312,18.7866035 C101.73725,18.4290673 102.376305,17.9711818 102.88359,17.4128352 C103.609672,16.613561 104.104036,15.6872299 104.366739,14.6337859 C104.629386,13.5803979 104.752991,12.3719601 104.737499,11.0085843 C104.741973,10.6100368 104.734423,10.2253459 104.715686,9.85367363 Z"
                fill="#066DB6"
            />
            <polygon
                fill="#00CA49"
                points="105.33304 2.46190982 97.0522803 10.7343559 94.7924879 8.47677645 92.7013801 10.5658965 94.9611725 12.8234201 94.9609488 12.8236436 97.0462958 14.906841 109.503679 2.46190982"
            />
        </g>
    </g>
</svg>
