<?xml version="1.0"?>
<svg xmlns="http://www.w3.org/2000/svg" width="131" height="30" fill="none"><path d="M25.507 6.8L14.16.25a1.88 1.88 0 00-1.875 0L.936 6.8C.356 7.135 0 7.753 0 8.422v5.105a.834.834 0 001.252.722l1.636-.944a.83.83 0 00.417-.722v-2.25c0-.67.356-1.29.936-1.624l8.043-4.64a1.88 1.88 0 011.875 0l8.043 4.64c.58.334.937.953.937 1.623v9.284c0 .67-.357 1.29-.937 1.623L14.16 25.88a1.88 1.88 0 01-1.875 0l-1.886-1.09a.32.32 0 010-.555l8.183-4.724a.835.835 0 000-1.446l-1.637-.944a.84.84 0 00-.835 0l-9.338 5.39a.317.317 0 01-.321 0l-2.663-1.536a.32.32 0 010-.556l8.182-4.724a.835.835 0 000-1.446l-1.636-.944a.84.84 0 00-.835 0l-6.193 3.576-2.888 1.666a.834.834 0 00-.417.722v2.252c0 .67.357 1.288.936 1.622l11.348 6.55c.58.333 1.295.333 1.875 0l11.348-6.55c.58-.334.936-.953.936-1.623V8.422a1.87 1.87 0 00-.936-1.622z" fill="#FEC600"/><path fill-rule="evenodd" clip-rule="evenodd" d="M46.788 4.532l2.138-1.236a.172.172 0 01.259.149v20.462h-2.428V21.534c-.621 1.24-1.995 2.32-4.016 2.32-3.8 0-6.145-3.022-6.145-6.88 0-3.668 2.479-6.796 6.145-6.796 2.29 0 3.53 1.133 3.961 2.185V4.68c0-.06.034-.117.086-.148zm-7.605 12.443c0 2.67 1.376 4.64 3.801 4.64 2.316 0 3.745-2.026 3.745-4.694 0-2.67-1.4-4.504-3.719-4.504-2.318 0-3.827 1.887-3.827 4.558zm12.722.028c0-3.94 2.748-6.879 6.629-6.879 3.88 0 6.63 2.94 6.63 6.879 0 3.965-2.749 6.904-6.63 6.904-3.88 0-6.63-2.94-6.63-6.904zM54.492 17c0 3.021 1.887 4.64 4.042 4.64 2.156 0 4.042-1.619 4.042-4.64 0-2.994-1.886-4.612-4.042-4.612-2.155 0-4.042 1.618-4.042 4.612zm56.195.002c0-3.94 2.749-6.879 6.63-6.879 3.88 0 6.63 2.94 6.629 6.879 0 3.965-2.749 6.904-6.629 6.904-3.881 0-6.63-2.94-6.63-6.904zm2.588-.002c0 3.021 1.886 4.64 4.042 4.64 2.157 0 4.043-1.619 4.041-4.64 0-2.994-1.886-4.612-4.041-4.612-2.156 0-4.042 1.618-4.042 4.612zm-26.004-6.877c-2.803 0-5.04 1.727-5.31 4.208l2.425.566c.16-1.51 1.16-2.616 2.937-2.616 1.967 0 2.802 1.052 2.802 2.32 0 .457-.215.863-.996.971l-3.504.512c-2.237.323-3.935 1.618-3.935 3.937 0 2.05 1.698 3.885 4.34 3.885 2.317 0 3.611-1.24 4.176-2.158v2.158H92.657V14.87c.005-2.534-1.505-4.746-5.386-4.746zm2.856 7.822c0 2.833-1.671 3.831-3.746 3.831-1.294 0-2.102-.918-2.102-1.887 0-1.16.808-1.781 1.887-1.942l3.961-.594v.592zm17.583-14.65l-2.138 1.236a.174.174 0 00-.085.148v7.683c-.432-1.052-1.672-2.185-3.962-2.185-3.666 0-6.145 3.128-6.145 6.797 0 3.857 2.345 6.878 6.145 6.878 2.021 0 3.395-1.078 4.016-2.319v2.389h2.428V3.445a.172.172 0 00-.259-.149zm-5.942 18.318c-2.424 0-3.8-1.969-3.8-4.64 0-2.67 1.508-4.557 3.826-4.557 2.319 0 3.719 1.835 3.719 4.504 0 2.668-1.428 4.694-3.745 4.694zM76.463 12.33c-.648-1.291-1.994-2.043-3.985-2.043-3.558 0-5.957 2.804-5.957 6.312 0 3.668 2.507 6.284 5.957 6.284 1.94 0 3.342-.944 3.96-2.13v1.861c0 2.805-1.239 4.208-3.96 4.208-1.875 0-3.21-1.247-3.497-2.929a.172.172 0 00-.255-.119l-1.967 1.136a.175.175 0 00-.08.2c.69 2.308 2.924 3.925 5.797 3.925 4.877 0 6.494-3.21 6.494-6.501V10.53h-2.507v1.8zm-7.354 4.267c0 2.536 1.456 4.154 3.746 4.154 2.184 0 3.692-1.644 3.692-4.154s-1.508-4.154-3.692-4.154c-2.238 0-3.746 1.646-3.746 4.154z" fill="#09111A"/></svg>
