<?xml version="1.0"?>
<svg xmlns="http://www.w3.org/2000/svg" viewBox="0 0 397.08 66.43" style="enable-background:new 0 0 397.08 66.43" xml:space="preserve" width="179" height="30"><path d="M0 24.71C0 38.28 10.84 49.2 24.03 49.2c11.65 0 19.94-6.46 22.67-16.02H33.86c-2 3.73-5.92 5.46-9.92 5.46-5.64 0-10.19-3.55-11.74-9.29h35.41C49.34 10.78 37.87.04 24.03.04 10.84.05 0 11.15 0 24.71m51.94-9.1h12.02c1.1-4 6.01-5.92 10.29-5.92 5.37 0 8.55 2 8.55 4.46 0 3.83-5.55 4.74-13.38 5.46-10.38.91-19.21 3.64-19.21 14.2 0 10.2 9.1 15.2 19.03 15.2 6.55 0 11.29-2 14.38-5.28.27 1.73.64 3.19 1.19 4.37h11.01c-.63-1.82-1.37-5.37-1.37-7.64v-24.4c0-3.73-1.46-16.02-20.48-16.02-12.28.01-20.84 6.65-22.03 15.57zm10.38 18.3c0-3.45 3.64-4.73 9.56-5.37 4.91-.55 8.83-1.37 11.38-3v4.37c0 6-5.83 8.46-13.02 8.46-4.82 0-7.92-1.82-7.92-4.46zm36.32-18.84c0 10.47 11.2 12.74 19.57 14.02 8.19 1.27 9.83 2.36 9.83 5.01 0 2.73-3.64 4.19-8.46 4.19-3.55 0-8.38-1.46-10.02-5.46H97.37c1.46 10.1 10.29 16.39 22.21 16.39 12.02 0 20.57-6.56 20.57-15.84 0-10.19-8.37-12.75-20.02-14.66-5.83-.91-9.29-1.73-9.29-4.19 0-1.73 2.28-3.73 7.83-3.73 4.46 0 7.1 1.73 7.83 3.92h12.47C137.42 5.89 129.41.06 118.67.06 105.1.05 98.64 7.69 98.64 15.07zm74.72-13.84L162.17 35.1 150.69 1.23h-12.74l18.11 47.7c-1.79 4.81-4.25 6.48-9.06 6.51h-1.77v10.98h2.67c8.47.13 14.77-2.25 18.91-13.31L186.2 1.22h-12.84zm48.27 19.46c0-12.4-7.29-20.69-18.32-20.69-5.01 0-9.11 2.18-12.12 5.74L179.7 36.42v11.71h12.03V20.69c0-5.29 3.74-9.3 9.12-9.3 7.93 0 8.75 6.56 8.75 9.3v27.43h12.03V20.69zM259 48.13h11.03c-.63-1.82-1.36-5.38-1.36-7.66V16.04c0-3.74-1.45-16.04-20.51-16.04-12.31 0-20.88 6.66-22.06 15.59h12.03c1.1-4.01 6.02-5.93 10.3-5.93 5.38 0 8.56 2.01 8.56 4.46 0 3.83-5.56 4.74-13.4 5.47-10.39.91-19.23 3.64-19.23 14.22 0 10.21 9.12 15.22 19.05 15.22 6.57 0 11.3-2 14.4-5.29.28 1.75.64 3.2 1.19 4.39zm-1.55-18.23c0 6.01-5.84 8.47-13.04 8.47-4.83 0-7.93-1.82-7.93-4.47 0-3.46 3.65-4.74 9.57-5.38 4.92-.55 8.84-1.37 11.39-3.01v4.39zm88.16-9.21c0-12.31-7.3-20.69-19.87-20.69-6.01 0-10.94 2.55-14.31 6.66-3.28-4.2-8.21-6.66-14.04-6.66-5.1 0-9.21 2.18-12.12 5.74V1.19h-11.58v46.94h12.12V20.69c0-5.29 3.74-9.3 9.03-9.3 7.93 0 8.75 6.56 8.75 9.3v27.43h12.13V20.69c0-5.29 3.73-9.3 9.11-9.3 7.84 0 8.76 6.56 8.76 9.3v27.43h12.03V20.69zm51.3 8.66C398.63 10.76 387.15 0 373.3 0c-13.22 0-24.06 11.12-24.06 24.7s10.84 24.52 24.06 24.52c11.66 0 19.96-6.47 22.69-16.04h-12.85c-2.01 3.73-5.92 5.47-9.93 5.47-5.65 0-10.21-3.56-11.76-9.3h35.46zm-35.28-9.84c1.73-5.47 6.11-8.93 11.57-8.93 5.74 0 10.3 3.46 11.75 8.93h-23.32zm-337.69-8.9c5.73 0 10.29 3.46 11.74 8.92h-23.3c1.73-5.47 6.1-8.92 11.56-8.92z" style="fill-rule:evenodd;clip-rule:evenodd;fill:#08111b"/><path d="M172.59 55.44h19.14v10.98h-25.84c2.77-2.72 4.96-6.37 6.7-10.98m-172.55 0H139v10.98H.04V55.44z" style="fill-rule:evenodd;clip-rule:evenodd;fill:#fec600"/></svg>
