<svg width="1000" height="183" viewBox="0 0 1000 183" fill="none" xmlns="http://www.w3.org/2000/svg">
<path d="M910.774 91.9372C910.774 65.2643 928.729 46.6393 954.549 46.6393C980.369 46.6393 998.14 64.2586 998.14 92.1201V98.7961L936.076 99.1311C937.601 110.41 943.942 115.714 955.555 115.714C965.463 115.714 972.473 112.117 974.363 105.959H998.476C995.396 124.92 978.479 137.083 955.067 137.083C929.247 137.083 910.805 118.275 910.805 91.9677L910.774 91.9372ZM936.412 82.8839H971.954C971.954 73.8302 965.28 68.0079 954.701 68.0079C944.125 68.0079 938.454 72.611 936.412 82.8839Z" fill="#141414"/>
<path d="M814.204 134.827V49.3521H838.988L840.695 58.2534C846 50.907 855.723 46.6393 866.851 46.6393C887.183 46.6393 898.979 59.625 898.979 82.0302V134.857H872.64V88.3707C872.64 77.6101 866.668 70.5991 857.613 70.5991C847.189 70.5991 840.512 77.4272 840.512 88.0354V134.857H814.174L814.204 134.827Z" fill="#141414"/>
<path d="M754.396 46.7918C781.588 46.7918 801.402 64.8985 801.402 91.9067C801.402 118.915 781.588 136.869 754.396 136.869C727.207 136.869 707.21 118.915 707.21 91.9067C707.21 64.8985 727.024 46.7918 754.396 46.7918ZM754.396 113.275C766.53 113.275 774.912 104.74 774.912 91.7238C774.912 78.7076 766.53 70.3552 754.396 70.3552C742.265 70.3552 733.698 78.8903 733.698 91.7238C733.698 104.557 742.082 113.275 754.396 113.275Z" fill="#141414"/>
<path d="M663.771 122.177C663.771 113.855 670.75 107.057 679.073 107.057C687.396 107.057 694.375 113.855 694.375 122.177C694.375 130.498 687.396 137.113 679.073 137.113C670.75 137.113 663.771 130.316 663.771 122.177Z" fill="#141414"/>
<path d="M561.774 51.2421H576.314L577.503 66.3009C583.143 54.839 594.421 48.8643 607.744 48.8643C631.671 48.8643 646.549 66.8189 646.549 92.4552C646.549 118.092 632.524 137.052 607.744 137.052C594.421 137.052 583.296 131.413 577.838 121.17V172.291H561.774V51.2421ZM604.329 122.512C620.729 122.512 630.482 110.197 630.482 93.0954C630.482 75.9945 620.729 63.5268 604.329 63.5268C587.93 63.5268 577.991 75.6591 577.991 93.0954C577.991 110.532 587.899 122.512 604.329 122.512Z" fill="#141414"/>
<path d="M541.96 51.2421V134.827H527.604L525.896 122.177C521.11 130.895 510.015 136.869 497.698 136.869C478.22 136.869 467.277 123.701 467.277 103.185V51.2116H483.341V97.8814C483.341 115.836 491.021 122.664 503.338 122.664C518.031 122.664 526.079 113.275 526.079 95.3207V51.2116H541.96V51.2421Z" fill="#141414"/>
<path d="M412.558 49.0168C437.524 49.0168 455.966 67.1238 455.966 92.943C455.966 118.762 437.494 136.869 412.558 136.869C387.625 136.869 368.969 118.762 368.969 92.943C368.969 67.1238 387.442 49.0168 412.558 49.0168ZM412.558 122.512C428.625 122.512 439.902 110.379 439.902 92.943C439.902 75.5067 428.625 63.3744 412.558 63.3744C396.494 63.3744 385.216 75.5067 385.216 92.943C385.216 110.379 396.311 122.512 412.558 122.512Z" fill="#141414"/>
<path d="M365.89 65.2643H358.695C343.485 65.2643 334.095 74.5006 334.095 90.5653V134.827H318.031V51.425H333.088L334.125 64.0756C337.54 55.3573 345.924 49.5351 357.384 49.5351C360.281 49.5351 362.689 49.8704 365.921 50.5713V65.2643H365.89Z" fill="#141414"/>
<path d="M253.437 48.8643C266.941 48.8643 277.366 55.0219 282.67 65.4472L283.86 51.2726H298.217V131.443C298.217 157.781 281.97 174.516 256.333 174.516C233.593 174.516 218.046 161.683 214.967 140.497H231.032C233.074 152.812 242.311 159.976 256.333 159.976C272.063 159.976 282.305 149.733 282.305 133.821V117.055C276.848 126.81 265.905 132.602 252.736 132.602C228.99 132.602 213.931 114.312 213.931 90.9006C213.931 67.4896 229.142 48.8643 253.407 48.8643H253.437ZM255.48 118.61C271.727 118.61 281.634 106.996 281.634 90.5652C281.634 74.1351 272.063 62.8866 255.663 62.8866C239.263 62.8866 230.026 75.2018 230.026 90.5652C230.026 105.929 239.781 118.61 255.48 118.61Z" fill="#141414"/>
<path d="M154.763 39.689L89.5598 2.04238C84.8348 -0.670621 79.043 -0.670621 74.3183 2.04238L9.14521 39.689C4.4203 42.4021 1.52441 47.4317 1.52441 52.8884V128.151C1.52441 133.608 4.4203 138.637 9.14521 141.35L74.3183 178.997C79.043 181.71 84.8348 181.71 89.5598 178.997L154.733 141.35C159.458 138.637 162.353 133.608 162.353 128.151V52.8884C162.353 47.4317 159.458 42.4021 154.733 39.689H154.763ZM144.094 126.383L81.9695 162.262L19.8448 126.383V54.6259L81.939 18.7471L144.064 54.6259V126.383H144.094Z" fill="#FEC600"/>
<path d="M44.2921 63.4658C41.4573 65.1119 39.7198 68.1299 39.7198 71.3915V109.617C39.7198 112.879 41.4573 115.897 44.2921 117.543L77.397 136.656C80.2317 138.302 83.707 138.302 86.5418 136.656L119.647 117.543C122.481 115.897 124.219 112.879 124.219 109.617V71.3915C124.219 68.1299 122.481 65.1119 119.647 63.4658L86.5418 44.353C83.707 42.7067 80.2317 42.7067 77.397 44.353L44.2921 63.4658Z" fill="#FEC600"/>
</svg>
