<?xml version="1.0" encoding="utf-8"?>
<!-- Generator: Adobe Illustrator 26.0.3, SVG Export Plug-In . SVG Version: 6.00 Build 0)  -->
<svg version="1.1" id="Ebene_1" xmlns="http://www.w3.org/2000/svg" xmlns:xlink="http://www.w3.org/1999/xlink" x="0px" y="0px"
	 viewBox="0 0 198.43 55.35" style="enable-background:new 0 0 198.43 55.35;" xml:space="preserve">
<style type="text/css">
	.st0{fill:#FFFFFF;}
	.st1{fill:#FEC600;}
</style>
<g>
	<g>
		<path class="st1" d="M170.65,0H27.77C12.43,0,0,12.39,0,27.67v0c0,15.28,12.43,27.67,27.77,27.67h142.88
			c15.34,0,27.77-12.39,27.77-27.67v0C198.43,12.39,185.99,0,170.65,0z"/>
		<g>
			<path d="M20.76,41.51V13.84h6.06v10.92h10.7V13.84h6.06v27.67h-6.06V30.37h-10.7v11.14H20.76z"/>
			<path d="M50.07,41.51V13.84h17.58v5.61H56.13v5.42h10.21v5.31H56.13v5.72h11.52v5.61H50.07z"/>
			<path d="M74.12,41.51V13.84h10.7c6.73,0,10.55,3.25,10.55,8.98c0,3.59-1.53,6.13-4.6,7.7l4.86,10.99H89l-4.15-9.69h-4.67v9.69
				H74.12z M80.18,26.51h4.6c2.66,0,4.19-1.35,4.19-3.7c0-2.32-1.46-3.59-4.15-3.59h-4.64V26.51z"/>
			<path d="M112.56,41.96c-8,0-13.5-5.83-13.5-14.29c0-8.45,5.53-14.32,13.54-14.32c8.04,0,13.58,5.83,13.58,14.29
				S120.6,41.96,112.56,41.96z M112.64,19.19c-4.49,0-7.18,3.18-7.18,8.45c0,5.31,2.69,8.49,7.18,8.49c4.45,0,7.14-3.25,7.14-8.49
				C119.78,22.36,117.09,19.19,112.64,19.19z"/>
			<path d="M137.21,35.9h10.92v5.61h-16.98V13.84h6.06V35.9z"/>
			<path d="M153.44,41.51V13.84h10.47c8.12,0,13.76,5.68,13.76,13.91c0,8.08-5.5,13.76-13.39,13.76H153.44z M159.49,19.45V35.9h4.19
				c4.79,0,7.59-3.03,7.59-8.15c0-5.24-2.95-8.3-7.97-8.3H159.49z"/>
		</g>
	</g>
</g>
</svg>
