<svg xmlns="http://www.w3.org/2000/svg" width="277" height="48" viewBox="0 0 277 48"><path fill="#2B2B2B" d="M109 18.22C110.395812 18.8144296 111.605088 19.7749408 112.5 21 113.237098 21.96031 113.728038 23.0863838 113.93 24.28 114.139332 26.1088226 114.226192 27.9495919 114.19 29.79L114.19 46.55 106.58 46.55 106.58 29.2C106.633002 27.9187743 106.368491 26.6443121 105.81 25.49 105.13 24.16 103.81 23.49 101.97 23.49 100.248172 23.3851009 98.5846774 24.1327389 97.52 25.49 96.404681 27.1431934 95.8700282 29.120002 96 31.11L96 46.55 88.55 46.55 88.55 8.16 96 8.16 96 21.75C96.8846832 20.2619296 98.1797706 19.0605885 99.73 18.29 101.127928 17.6308295 102.654455 17.2893246 104.2 17.29 105.846868 17.2673103 107.480776 17.5838801 109 18.22zM145 43.07C142.6 46.03 138.95 47.5133333 134.05 47.5200224 129.15 47.5266667 125.5 46.0433333 123.1 43.07 120.668078 40.0353213 119.389178 36.2375899 119.49 32.35 119.407227 28.4773582 120.684629 24.6982318 123.1 21.67 125.5 18.6566667 129.15 17.15 134.05 17.15 138.95 17.15 142.6 18.6566667 145 21.67 147.415371 24.6982318 148.692773 28.4773582 148.61 32.35 148.710822 36.2375899 147.431922 40.0353213 145 43.07L145 43.07zM139 39C140.283071 37.0477401 140.897224 34.7315047 140.75 32.4 140.91125 30.0545853 140.296296 27.7212723 139 25.76 137.742329 24.2935983 135.906857 23.4497303 133.975 23.4497303 132.043143 23.4497303 130.207671 24.2935983 128.95 25.76 127.660135 27.7058476 127.04205 30.0201534 127.19 32.35 127.045725 34.6826178 127.663412 36.9989455 128.95 38.95 130.196638 40.4288815 132.029259 41.2864759 133.963452 41.2961806 135.897646 41.3057216 137.738709 40.4664043 139 39zM159.67 37.46C159.707673 38.4800372 160.056634 39.4641093 160.67 40.28 161.6 41.28 163.31 41.77 165.82 41.77 167.020875 41.8217315 168.217773 41.5994505 169.32 41.12 170.128582 40.7903587 170.647011 39.9927766 170.62 39.12 170.659446 38.3487142 170.276347 37.6169963 169.62 37.21 168.953333 36.77 166.353333 36.02 161.82 34.96 158.606667 34.1866667 156.333333 33.2 155 32 153.610175 30.6722744 152.878127 28.7982325 153 26.88 152.987326 24.2743739 154.120977 21.7949681 156.1 20.1 158.166667 18.2066667 161.076667 17.26 164.83 17.26 167.877004 17.1253216 170.899024 17.8643461 173.54 19.39 175.79 20.81 177.07 23.27 177.41 26.75L169.96 26.75C169.903443 25.9333359 169.623209 25.147991 169.15 24.48 168.32 23.48 166.93 22.96 164.95 22.96 163.743137 22.8572797 162.533441 23.1222273 161.48 23.72 160.872255 24.1109242 160.497718 24.7775999 160.48 25.5 160.439608 26.2821757 160.873509 27.0119169 161.58 27.35 164.111293 28.2550369 166.713641 28.9474355 169.36 29.42 171.8117 29.8682171 174.101957 30.9547095 176 32.57 177.455759 33.9669062 178.254599 35.9131705 178.2 37.93 178.260634 40.6045301 177.078921 43.1562911 175 44.84 172.9 46.6266667 169.65 47.52 165.25 47.52 160.85 47.52 157.536667 46.5733333 155.31 44.68 153.209551 42.8778752 152.030853 40.2267237 152.1 37.46L159.67 37.46zM180.73 23.63L180.73 18.33 184.73 18.33 184.73 10.38 192.1 10.38 192.1 18.33 196.73 18.33 196.73 23.63 192.1 23.63 192.1 38.63C191.997232 39.389911 192.155918 40.1621816 192.55 40.82 192.84 41.1 193.75 41.25 195.27 41.25L196 41.25 196.74 41.25 196.74 46.81 193.21 46.94C189.69 47.0666667 187.286667 46.4566667 186 45.11 185.075637 44.0148886 184.622604 42.5982626 184.74 41.17L184.74 23.63 180.73 23.63zM224.46 19.7C226.32 21.24 227.25 23.7966667 227.25 27.37L227.25 46.55 219.62 46.55 219.62 29.22C219.677233 28.039802 219.472325 26.8615792 219.02 25.77 218.3 24.31 216.91 23.58 214.87 23.58 212.634713 23.4130491 210.54815 24.7110855 209.71 26.79 209.182548 28.1742907 208.934443 29.6493277 208.98 31.13L208.98 46.55 201.54 46.55 201.54 18.12 208.75 18.12 208.75 22.27C209.470507 21.0727054 210.38652 20.0045868 211.46 19.11 213.148389 17.9069159 215.188427 17.298422 217.26 17.38 219.858799 17.277843 222.409735 18.0998115 224.46 19.7L224.46 19.7zM252.74 18.64C254.750451 19.5504003 256.46036 21.0140544 257.67 22.86 258.860233 24.622867 259.633129 26.6337659 259.93 28.74 260.166762 30.6167588 260.250371 32.5096753 260.18 34.4L239.43 34.4C239.55 37.26 240.55 39.26 242.43 40.4 243.670913 41.1389582 245.096282 41.5100396 246.54 41.47 248.921938 41.646727 251.170046 40.3501994 252.21 38.2L259.81 38.2C259.456235 40.1787058 258.470236 41.9892951 257 43.36 254.453333 46.1266667 250.88 47.5133333 246.28 47.52 242.637933 47.5604694 239.097796 46.3178815 236.28 44.01 233.38 41.6833333 231.93 37.8833333 231.93 32.61 231.93 27.67 233.24 23.8866667 235.86 21.26 238.549014 18.5988034 242.219407 17.1690152 246 17.31 248.315942 17.2660713 250.614346 17.7196141 252.74 18.64L252.74 18.64zM241.6 25.08C240.479569 26.2947937 239.778534 27.8370714 239.6 29.48L252.43 29.48C252.407259 27.7695049 251.684407 26.1430883 250.43 24.98 249.199192 23.9432354 247.628444 23.3982821 246.02 23.45 244.383886 23.3535881 242.781778 23.9444108 241.6 25.08zM261 23.63L261 18.33 265 18.33 265 10.38 272.37 10.38 272.37 18.33 277 18.33 277 23.63 272.37 23.63 272.37 38.63C272.267232 39.389911 272.425918 40.1621816 272.82 40.82 273.11 41.1 274.02 41.25 275.54 41.25L276.25 41.25 277 41.25 277 46.81 273.47 46.94C269.95 47.0666667 267.546667 46.4566667 266.26 45.11 265.335637 44.0148886 264.882604 42.5982626 265 41.17L265 23.63 261 23.63z"></path><path fill="#43C7F3" d="M45.54,33.43 C45.539999,36.900765 46.9194391,40.2292305 49.3745782,42.682494 C51.8297172,45.1357575 55.159236,46.5126535 58.63,46.5100038 L71.71,46.5100038 L71.71,33.43 C71.8416313,28.6689301 69.3768339,24.2120898 65.274167,21.7927434 C61.1715001,19.3733969 56.0784999,19.3733969 51.975833,21.7927434 C47.8731661,24.2120898 45.4083687,28.6689301 45.54,33.43 L45.54,33.43 Z"></path><path fill="#27D7E0" d="M11.91,23.73 C11.91,36.3110466 22.1089534,46.51 34.69,46.51 L57.48,46.51 L57.48,23.73 C57.6529291,15.4759164 53.3483508,7.77373562 46.2275339,3.59596524 C39.1067169,-0.581805141 30.2832831,-0.581805141 23.1624661,3.59596524 C16.0416492,7.77373562 11.7370709,15.4759164 11.91,23.73 L11.91,23.73 Z"></path><path fill="#1356D9" d="M0,29 C0.00548655235,38.6565257 7.82349789,46.4879547 17.48,46.51 L35,46.51 L35,29 C34.4571194,19.7325195 26.7833676,12.4951341 17.5,12.4951341 C8.2166324,12.4951341 0.542880607,19.7325195 0,29 L0,29 Z"></path></svg>