<svg width="874" height="1000" viewBox="0 0 874 1000" fill="none" xmlns="http://www.w3.org/2000/svg">
<path d="M832.485 223.573L478.387 19.0857C452.779 4.25951 421.2 4.25951 395.591 19.0857L41.398 223.573C15.789 238.399 0 265.741 0 295.297V704.174C0 733.73 15.789 761.073 41.398 775.899L395.495 980.389C421.104 995.214 452.683 995.214 478.291 980.389L832.388 775.899C857.997 761.073 873.786 733.73 873.786 704.174V295.297C873.786 265.741 857.997 238.399 832.388 223.573H832.485ZM774.527 694.643L436.989 889.503L99.4515 694.643V304.828L436.989 109.969L774.527 304.828V694.643Z" fill="#FEC600"/>
<path d="M232.285 352.831C216.883 361.687 207.449 378.149 207.449 395.861V603.502C207.449 621.215 216.883 637.676 232.285 646.532L412.105 750.305C427.508 759.161 446.375 759.161 461.778 750.305L641.598 646.532C657 637.676 666.434 621.215 666.434 603.502V395.861C666.434 378.149 657 361.687 641.598 352.831L461.778 249.059C446.375 240.203 427.508 240.203 412.105 249.059L232.285 352.831Z" fill="#FEC600"/>
</svg>
