<?xml version="1.0"?>
<svg xmlns="http://www.w3.org/2000/svg" xml:space="preserve" id="Layer_1" x="0" y="0" style="enable-background:new 0 0 740 100" version="1.1" viewBox="0 0 740 100" width="222" height="30"><style>.st0{fill:#08111b}</style><path d="m35 0 13.06 50.07c1.86 7.19 2.58 10.64 3.44 15.83.86-5.18 2.01-10.36 3.59-16.26L68.57 0h25.12L103 100H83.35l-3.73-53.38c-.43-6.33-.72-10.95-.72-16.28-1.15 5.76-2 8.94-3.73 14.98L59.39 100H42.32l-14.2-52.52c-1.29-4.89-3.01-11.52-4.02-17.28 0 5.9-.29 11.38-.72 17.57L19.94 100H0L9.74 0H35zM204.71 0l-2.57 16.41h-34.09v23.16h28.5v16.4h-28.22v26.77H206V100h-58V0zM313 0l-3.3 16.69h-23.86V100h-20.41V16.69H241V0zM388.51 0h-21.72l-23.88 72.83h20.36L377 27.71 398.43 100H420z" class="st0"/><path d="M382.83 82.78h-43.19L334 100h53.93z" style="fill:#fec600"/><path d="m479.14 0 19 40c5 10.64 8.85 21.15 10.86 28.34-.71-7.77-1.43-20.58-1.57-27.48L507 0h19v100h-20.86l-17-38.27c-5.57-12.52-11.57-26.62-13.43-32.8.71 8.2.86 20 1 28.34l.57 42.73H457V0h22.14zM631.71 0l-2.58 16.41h-34.08v23.16h28.5v16.4h-28.22v26.77H633V100h-58V0zM740 0l-3.3 16.69h-23.86V100h-20.41V16.69H668V0z" class="st0"/></svg>
