<?xml version="1.0" encoding="utf-8"?>
<svg xmlns="http://www.w3.org/2000/svg" width="227" height="63" viewBox="-2 -2 227 63"><path fill="#282827" d="M126.711,17.859c-2.913,0-5.547,1.127-7.447,3.01c-1.907,1.879-3.078,4.515-3.078,7.516 c0,2.961,1.11,5.593,3.041,7.467c1.926,1.88,4.672,2.992,7.892,2.992c3.888,0.009,6.667-1.334,8.499-3.533l0.228-0.273l-2.774-2.707 l-0.271,0.301c-1.238,1.396-2.845,2.381-5.741,2.39c-1.801,0-3.25-0.509-4.321-1.431c-0.974-0.843-1.625-2.033-1.929-3.53h16.061 l0.006-0.383l0.006-0.304c0-3.3-0.96-6.176-2.717-8.239C132.408,19.08,129.836,17.859,126.711,17.859z M122.802,23.055 c1.001-0.871,2.319-1.368,3.91-1.368c1.731,0.007,3.005,0.546,3.927,1.442c0.826,0.802,1.35,1.901,1.622,3.167h-11.32 C121.267,24.951,121.9,23.839,122.802,23.055z"/><path fill="#282827" d="M159.968,32.689c-1.177,1.283-2.865,2.273-5.394,2.273c-1.766,0-3.2-0.706-4.215-1.874 c-1.014-1.175-1.605-2.819-1.605-4.702c0-1.916,0.594-3.575,1.605-4.758c1.015-1.172,2.449-1.881,4.215-1.881 c2.127,0,3.768,0.776,4.925,2.042l0.256,0.284l2.984-2.693l-0.266-0.285c-1.877-2.067-4.421-3.237-7.899-3.237 c-2.915,0-5.505,1.127-7.363,3.013c-1.857,1.876-2.983,4.512-2.983,7.512c0,2.97,1.126,5.593,2.983,7.467 c1.858,1.863,4.448,2.992,7.363,2.992c3.718,0.009,6.489-1.272,8.379-3.533l0.243-0.299l-2.972-2.605L159.968,32.689z"/><path fill="#282827" d="M173.844,17.859c-2.969,0-5.632,1.127-7.552,3.01c-1.917,1.879-3.089,4.515-3.089,7.516 c0,2.978,1.177,5.598,3.089,7.467c1.92,1.875,4.583,2.992,7.552,2.992c2.94,0,5.587-1.117,7.497-2.992 c1.911-1.869,3.084-4.488,3.084-7.467c0-3.001-1.171-5.637-3.079-7.516C179.431,18.986,176.784,17.859,173.844,17.859z M169.435,23.582c1.072-1.182,2.581-1.896,4.409-1.896c1.829,0,3.336,0.714,4.41,1.896c1.072,1.187,1.699,2.871,1.699,4.803 c-0.017,3.817-2.469,6.627-6.109,6.636c-3.64-0.009-6.097-2.819-6.111-6.636C167.734,26.453,168.362,24.769,169.435,23.582z"/><path fill="#282827" d="M81.11,17.859c-2.968,0-5.629,1.127-7.546,3.01c-1.92,1.879-3.089,4.515-3.089,7.516 c0,2.978,1.17,5.598,3.089,7.467c1.916,1.875,4.577,2.992,7.546,2.992c2.939,0,5.59-1.117,7.498-2.992 c1.914-1.869,3.087-4.488,3.087-7.467c0-3.001-1.172-5.637-3.087-7.516C86.7,18.986,84.049,17.859,81.11,17.859z M76.702,23.582 c1.073-1.182,2.583-1.896,4.408-1.896c1.835,0,3.341,0.714,4.414,1.896c1.066,1.187,1.698,2.871,1.698,4.803 c-0.018,3.817-2.471,6.627-6.112,6.636c-3.637-0.009-6.092-2.819-6.112-6.636C74.998,26.453,75.633,24.769,76.702,23.582z"/><path fill="#282827" d="M111.382,20.869c-1.91-1.883-4.562-3.01-7.501-3.01c-2.969,0-5.63,1.127-7.549,3.01 c-1.919,1.879-3.089,4.515-3.089,7.516v10.459h4.528V28.385c0-1.932,0.63-3.616,1.701-4.803c1.07-1.182,2.582-1.896,4.409-1.896 c1.832,0,3.338,0.714,4.414,1.896c1.064,1.187,1.696,2.871,1.696,4.803v10.459h4.473V28.385 C114.464,25.384,113.293,22.748,111.382,20.869z"/><path fill="#282827" d="M217.378,20.592c-1.915-1.883-4.013-2.733-6.982-2.733c-2.97,0-5.065,0.85-6.983,2.733 c-0.141,0.135-0.271,0.281-0.404,0.43c-0.127-0.149-0.256-0.295-0.398-0.43c-1.916-1.883-4.015-2.733-6.984-2.733 c-2.968,0-5.067,0.85-6.985,2.733c-1.918,1.881-2.662,4.792-2.662,7.793v10.459h4.525V28.385c0-2.953,0.23-3.691,1.231-4.947 c0.687-0.858,2.065-1.751,3.891-1.751s3.205,0.893,3.891,1.751c1.004,1.256,1.231,1.994,1.231,4.947v10.459h4.525V28.385 c0-2.953,0.23-3.691,1.231-4.947c0.689-0.858,2.065-1.751,3.891-1.751c1.827,0,3.208,0.893,3.894,1.751 c1,1.256,1.23,1.994,1.23,4.947v10.459h4.525V28.385C220.045,25.384,219.302,22.473,217.378,20.592z"/><path fill="#282827" d="M140.648,34.185c-1.294,0-2.337,1.044-2.337,2.329c0,1.286,1.044,2.329,2.337,2.329 c1.286,0,2.328-1.044,2.328-2.329S141.935,34.185,140.648,34.185z"/><path fill="#282827" d="M160.699,47.692c0,0.197,0.042,0.345,0.134,0.444c0.091,0.102,0.223,0.148,0.402,0.148 c0.18,0,0.311-0.046,0.402-0.148c0.088-0.099,0.132-0.247,0.132-0.444v-4.386c0-0.201-0.044-0.349-0.132-0.449 c-0.091-0.097-0.222-0.148-0.402-0.148c-0.179,0-0.311,0.051-0.402,0.148c-0.093,0.1-0.134,0.248-0.134,0.449V47.692z M158.955,43.673c0.113,0.114,0.246,0.17,0.4,0.17c0.155,0,0.289-0.057,0.4-0.17c0.109-0.108,0.164-0.242,0.164-0.395 c0-0.16-0.054-0.296-0.164-0.404c-0.111-0.111-0.244-0.165-0.4-0.165c-0.157,0-0.29,0.054-0.4,0.168 c-0.114,0.113-0.171,0.244-0.171,0.401C158.783,43.426,158.841,43.559,158.955,43.673z M159.891,44.74 c0-0.204-0.044-0.355-0.135-0.459c-0.091-0.098-0.222-0.15-0.397-0.15c-0.18,0-0.315,0.051-0.406,0.15 c-0.089,0.103-0.133,0.254-0.133,0.459v2.952c0,0.197,0.044,0.345,0.133,0.444c0.091,0.102,0.226,0.148,0.406,0.148 c0.175,0,0.306-0.046,0.397-0.148c0.091-0.099,0.135-0.247,0.135-0.444V44.74z M157.598,44.359c-0.3-0.193-0.729-0.293-1.288-0.293 c-0.452,0-0.833,0.099-1.142,0.301c-0.305,0.2-0.461,0.436-0.461,0.706c0,0.122,0.041,0.228,0.122,0.31 c0.084,0.086,0.185,0.131,0.309,0.131c0.147,0,0.307-0.094,0.478-0.279c0.053-0.059,0.093-0.099,0.121-0.125 c0.079-0.068,0.169-0.119,0.275-0.154c0.097-0.033,0.21-0.05,0.334-0.05c0.235,0,0.402,0.037,0.504,0.104 c0.102,0.072,0.152,0.186,0.152,0.351c0,0.076-0.014,0.142-0.041,0.195s-0.07,0.089-0.125,0.106 c-0.074,0.026-0.242,0.052-0.498,0.083c-0.253,0.028-0.464,0.066-0.628,0.097c-0.431,0.094-0.734,0.239-0.916,0.43 c-0.176,0.196-0.267,0.481-0.267,0.848c0,0.396,0.108,0.702,0.32,0.919c0.212,0.219,0.512,0.329,0.895,0.329 c0.29,0,0.546-0.056,0.764-0.163c0.216-0.111,0.396-0.268,0.531-0.481c0.003,0.221,0.053,0.386,0.147,0.489 c0.092,0.105,0.241,0.155,0.44,0.155c0.143,0,0.257-0.037,0.341-0.11c0.078-0.073,0.121-0.174,0.121-0.301 c0-0.023-0.008-0.088-0.022-0.196c-0.01-0.102-0.02-0.2-0.02-0.278V45.2C158.043,44.834,157.897,44.552,157.598,44.359z M157.013,46.628c0,0.28-0.081,0.501-0.244,0.663c-0.165,0.168-0.384,0.247-0.657,0.247c-0.177,0-0.314-0.04-0.412-0.122 c-0.101-0.089-0.147-0.205-0.147-0.355c0-0.143,0.034-0.254,0.113-0.336c0.074-0.079,0.205-0.148,0.39-0.202 c0.008-0.003,0.125-0.028,0.353-0.074c0.228-0.048,0.43-0.113,0.604-0.201V46.628z M151.083,44.205 c-0.181-0.094-0.397-0.139-0.65-0.139c-0.231,0-0.44,0.048-0.624,0.148c-0.187,0.097-0.349,0.239-0.492,0.432 c-0.016-0.17-0.067-0.298-0.152-0.387c-0.088-0.082-0.209-0.127-0.36-0.127c-0.164,0-0.287,0.051-0.374,0.157 c-0.088,0.105-0.132,0.253-0.132,0.452v2.952c0,0.197,0.044,0.345,0.132,0.444c0.091,0.102,0.223,0.148,0.397,0.148 s0.309-0.046,0.396-0.148c0.086-0.099,0.133-0.247,0.133-0.444v-1.929c0-0.238,0.063-0.423,0.184-0.559 c0.122-0.131,0.287-0.202,0.495-0.202c0.191,0,0.333,0.054,0.435,0.162c0.101,0.105,0.153,0.256,0.153,0.45v2.078 c0,0.197,0.043,0.351,0.129,0.447c0.088,0.099,0.216,0.144,0.39,0.144c0.176,0,0.307-0.046,0.396-0.148 c0.087-0.099,0.133-0.247,0.133-0.444v-1.934c0-0.236,0.062-0.421,0.184-0.557c0.125-0.137,0.289-0.203,0.499-0.203 c0.188,0,0.333,0.049,0.438,0.16c0.107,0.105,0.158,0.256,0.158,0.446v2.088c0,0.194,0.046,0.341,0.138,0.444 c0.089,0.1,0.22,0.148,0.393,0.148c0.178,0,0.309-0.046,0.396-0.144c0.086-0.097,0.131-0.25,0.131-0.447v-2.304 c0-0.406-0.119-0.728-0.352-0.964c-0.234-0.233-0.555-0.35-0.963-0.35c-0.238,0-0.452,0.046-0.644,0.145 c-0.194,0.099-0.359,0.242-0.497,0.432C151.419,44.45,151.264,44.302,151.083,44.205z M146.264,45.704 c-0.181,0-0.319,0.039-0.409,0.122c-0.093,0.088-0.138,0.215-0.138,0.381c0,0.174,0.044,0.301,0.135,0.384 c0.091,0.082,0.23,0.123,0.411,0.123h0.984c0.178,0,0.311-0.041,0.406-0.126c0.092-0.085,0.139-0.213,0.139-0.381 s-0.046-0.299-0.139-0.381c-0.089-0.083-0.226-0.122-0.406-0.122H146.264z M142.413,47.225v-1.408h2.069 c0.193,0,0.344-0.037,0.446-0.116c0.099-0.079,0.149-0.19,0.149-0.341c0-0.16-0.05-0.276-0.148-0.352 c-0.101-0.08-0.25-0.116-0.448-0.116h-2.069V43.73h2.301c0.2,0,0.348-0.039,0.449-0.116c0.101-0.084,0.151-0.194,0.151-0.35 c0-0.159-0.05-0.279-0.151-0.361c-0.101-0.08-0.249-0.119-0.449-0.119h-2.727c-0.256,0-0.436,0.063-0.533,0.182 c-0.099,0.119-0.146,0.34-0.146,0.677v3.723c0,0.33,0.048,0.557,0.146,0.678c0.097,0.119,0.277,0.178,0.533,0.178h2.87 c0.199,0,0.351-0.043,0.454-0.128c0.101-0.085,0.15-0.207,0.15-0.371c0-0.168-0.049-0.294-0.15-0.373 c-0.101-0.086-0.254-0.123-0.454-0.123h-2.443V47.225z M135.971,46.185c0.21,0.21,0.469,0.321,0.772,0.321 c0.299,0,0.559-0.111,0.774-0.325c0.215-0.212,0.322-0.472,0.322-0.77c0-0.301-0.107-0.56-0.322-0.773 c-0.213-0.213-0.467-0.319-0.769-0.319c-0.303,0-0.561,0.106-0.772,0.316c-0.218,0.211-0.325,0.473-0.325,0.777 C135.651,45.713,135.756,45.969,135.971,46.185z M131.231,48.011c0,0.381-0.067,0.643-0.202,0.783 c-0.133,0.142-0.367,0.209-0.698,0.209c-0.228,0-0.454-0.091-0.684-0.281l-0.014-0.008c-0.109-0.091-0.204-0.15-0.265-0.177 c-0.064-0.027-0.134-0.039-0.204-0.039c-0.144,0-0.261,0.042-0.354,0.133c-0.092,0.087-0.141,0.202-0.141,0.339 c0,0.256,0.15,0.466,0.45,0.633c0.299,0.172,0.684,0.256,1.159,0.256c0.717,0,1.23-0.147,1.535-0.431 c0.304-0.287,0.459-0.778,0.459-1.473V44.74c0-0.208-0.043-0.361-0.129-0.459c-0.087-0.098-0.216-0.15-0.392-0.15 c-0.149,0-0.27,0.046-0.361,0.137c-0.093,0.091-0.135,0.208-0.135,0.355v0.072c-0.124-0.211-0.28-0.373-0.466-0.473 c-0.195-0.102-0.425-0.156-0.695-0.156c-0.518,0-0.93,0.193-1.237,0.574c-0.309,0.384-0.459,0.898-0.459,1.545 c0,0.62,0.152,1.109,0.466,1.482c0.315,0.37,0.728,0.554,1.247,0.554c0.27,0,0.497-0.049,0.678-0.139 c0.179-0.091,0.327-0.233,0.442-0.426L131.231,48.011L131.231,48.011z M129.709,45.291c0.151-0.203,0.363-0.304,0.638-0.304 c0.279,0,0.496,0.097,0.651,0.299c0.155,0.199,0.234,0.484,0.234,0.851c0,0.384-0.076,0.679-0.225,0.882 c-0.149,0.201-0.365,0.307-0.648,0.307c-0.28,0-0.495-0.106-0.644-0.307c-0.152-0.203-0.226-0.489-0.226-0.871 C129.487,45.784,129.561,45.493,129.709,45.291z M125.357,45.838c0-0.258,0.074-0.465,0.222-0.617 c0.147-0.15,0.348-0.228,0.602-0.228c0.221,0,0.377,0.063,0.477,0.188c0.095,0.12,0.147,0.324,0.147,0.617v1.894 c0,0.197,0.044,0.345,0.132,0.444c0.09,0.102,0.222,0.148,0.401,0.148c0.178,0,0.314-0.046,0.404-0.148 c0.089-0.099,0.134-0.247,0.134-0.444v-2.207c0-0.469-0.114-0.825-0.336-1.061c-0.223-0.239-0.555-0.358-0.989-0.358 c-0.263,0-0.5,0.059-0.708,0.179c-0.21,0.119-0.381,0.29-0.516,0.515l-0.013-0.133c-0.012-0.174-0.059-0.296-0.139-0.375 c-0.079-0.078-0.198-0.12-0.355-0.12c-0.179,0-0.314,0.051-0.402,0.15c-0.09,0.103-0.132,0.254-0.132,0.459v2.952 c0,0.197,0.044,0.345,0.132,0.444c0.092,0.102,0.224,0.148,0.402,0.148c0.18,0,0.311-0.046,0.403-0.148 c0.092-0.099,0.135-0.247,0.135-0.444v-1.855H125.357z M122.571,43.673c0.113,0.114,0.25,0.17,0.4,0.17 c0.154,0,0.289-0.057,0.401-0.17c0.109-0.108,0.165-0.242,0.165-0.395c0-0.16-0.056-0.296-0.163-0.404 c-0.11-0.111-0.244-0.165-0.403-0.165c-0.154,0-0.286,0.054-0.4,0.168c-0.111,0.113-0.169,0.244-0.169,0.401 C122.403,43.426,122.46,43.559,122.571,43.673z M123.508,44.74c0-0.204-0.043-0.355-0.134-0.459c-0.089-0.098-0.224-0.15-0.4-0.15 c-0.179,0-0.315,0.051-0.403,0.15c-0.09,0.103-0.134,0.254-0.134,0.459v2.952c0,0.197,0.044,0.345,0.134,0.444 c0.088,0.102,0.224,0.148,0.403,0.148c0.176,0,0.312-0.046,0.4-0.148c0.091-0.099,0.134-0.247,0.134-0.444V44.74z M120.208,47.129 c0,0.455,0.08,0.76,0.243,0.919c0.163,0.158,0.456,0.235,0.882,0.235c0.257,0,0.445-0.037,0.562-0.114 c0.119-0.079,0.181-0.202,0.181-0.372c0-0.12-0.038-0.211-0.103-0.274c-0.068-0.065-0.158-0.097-0.276-0.097 c-0.029,0-0.063,0-0.101,0c-0.042,0.003-0.068,0.009-0.083,0.009c-0.088,0-0.148-0.02-0.181-0.054s-0.05-0.103-0.05-0.2V44.96h0.273 c0.139,0,0.248-0.033,0.32-0.097c0.072-0.06,0.107-0.156,0.107-0.279c0-0.128-0.033-0.221-0.104-0.284 c-0.073-0.057-0.18-0.091-0.323-0.091h-0.273v-0.542c-0.007-0.201-0.053-0.355-0.144-0.455c-0.088-0.096-0.223-0.147-0.403-0.147 c-0.174,0-0.307,0.051-0.395,0.147c-0.09,0.1-0.131,0.248-0.131,0.453v0.543h-0.176c-0.14,0-0.25,0.034-0.321,0.094 c-0.073,0.062-0.108,0.156-0.108,0.281c0,0.123,0.034,0.219,0.108,0.279c0.071,0.063,0.181,0.097,0.321,0.097h0.176v2.17H120.208z M117.792,46.708l0.025,0.006c0.409,0.097,0.618,0.232,0.618,0.401c0,0.128-0.059,0.225-0.173,0.296 c-0.117,0.071-0.279,0.108-0.492,0.108c-0.169,0-0.31-0.02-0.425-0.059c-0.109-0.037-0.212-0.097-0.296-0.186 c-0.024-0.022-0.062-0.062-0.106-0.113c-0.167-0.188-0.33-0.279-0.484-0.279c-0.141,0-0.257,0.045-0.346,0.137 c-0.092,0.091-0.137,0.207-0.137,0.346c0,0.276,0.158,0.506,0.47,0.703c0.314,0.194,0.711,0.287,1.187,0.287 c0.612,0,1.079-0.117,1.399-0.359c0.323-0.235,0.484-0.579,0.484-1.034c0-0.327-0.103-0.58-0.31-0.762s-0.566-0.328-1.076-0.441 l-0.328-0.074c-0.327-0.07-0.534-0.136-0.626-0.188c-0.091-0.056-0.137-0.13-0.137-0.23c0-0.123,0.052-0.22,0.151-0.279 c0.099-0.065,0.247-0.096,0.445-0.096c0.094,0,0.191,0.016,0.293,0.045c0.098,0.034,0.178,0.068,0.236,0.116 c0.016,0.012,0.049,0.037,0.082,0.066c0.216,0.165,0.385,0.249,0.506,0.249c0.131,0,0.238-0.044,0.319-0.121 c0.085-0.083,0.127-0.185,0.127-0.313c0-0.239-0.149-0.441-0.446-0.615c-0.301-0.167-0.672-0.252-1.118-0.252 c-0.508,0-0.908,0.119-1.202,0.358c-0.297,0.239-0.445,0.566-0.445,0.975c0,0.314,0.106,0.563,0.32,0.748 c0.21,0.188,0.568,0.344,1.07,0.464L117.792,46.708z M112.025,44.64c-0.363,0.379-0.542,0.902-0.542,1.567 c0,0.671,0.179,1.194,0.542,1.579c0.36,0.378,0.86,0.568,1.489,0.568c0.632,0,1.128-0.19,1.488-0.568 c0.364-0.385,0.546-0.908,0.546-1.579c0-0.666-0.182-1.189-0.546-1.567c-0.36-0.384-0.857-0.574-1.488-0.574 C112.885,44.066,112.384,44.256,112.025,44.64z M114.207,45.295c0.163,0.216,0.244,0.521,0.244,0.913 c0,0.402-0.082,0.708-0.244,0.925c-0.164,0.216-0.394,0.324-0.69,0.324c-0.303,0-0.536-0.108-0.699-0.324 c-0.165-0.217-0.245-0.523-0.245-0.925c0-0.392,0.08-0.696,0.245-0.913c0.162-0.22,0.396-0.325,0.699-0.325 C113.814,44.97,114.043,45.075,114.207,45.295z M106.355,47.692c0,0.197,0.045,0.345,0.137,0.444 c0.095,0.102,0.234,0.148,0.421,0.148c0.189,0,0.331-0.046,0.424-0.144c0.089-0.097,0.137-0.25,0.137-0.447V45.81h2.243v1.882 c0,0.197,0.047,0.345,0.14,0.444c0.093,0.102,0.232,0.148,0.42,0.148c0.19,0,0.331-0.046,0.422-0.144 c0.096-0.097,0.141-0.25,0.141-0.447v-4.386c0-0.201-0.05-0.349-0.142-0.449c-0.094-0.097-0.236-0.148-0.422-0.148 c-0.189,0-0.33,0.048-0.422,0.148c-0.091,0.096-0.138,0.248-0.138,0.449v1.499h-2.243v-1.499c0-0.201-0.048-0.349-0.142-0.449 c-0.091-0.097-0.231-0.148-0.419-0.148c-0.188,0-0.327,0.048-0.421,0.148c-0.092,0.096-0.137,0.248-0.137,0.449L106.355,47.692 L106.355,47.692z M101.008,46.185c0.214,0.21,0.47,0.321,0.772,0.321c0.301,0,0.558-0.111,0.773-0.325 c0.217-0.212,0.324-0.472,0.324-0.77c0-0.301-0.104-0.56-0.32-0.773c-0.211-0.213-0.471-0.319-0.769-0.319 c-0.305,0-0.563,0.106-0.777,0.316c-0.214,0.211-0.32,0.473-0.32,0.777C100.692,45.713,100.796,45.969,101.008,46.185z M94.818,45.838c0-0.258,0.073-0.465,0.222-0.617c0.146-0.15,0.348-0.228,0.602-0.228c0.219,0,0.376,0.063,0.474,0.188 c0.097,0.12,0.147,0.324,0.147,0.617v1.894c0,0.197,0.044,0.345,0.134,0.444c0.09,0.102,0.223,0.148,0.402,0.148 c0.178,0,0.312-0.046,0.401-0.148c0.091-0.099,0.134-0.247,0.134-0.444v-2.207c0-0.469-0.112-0.825-0.335-1.061 c-0.224-0.239-0.554-0.358-0.99-0.358c-0.26,0-0.496,0.059-0.706,0.179c-0.21,0.119-0.382,0.29-0.517,0.515l-0.013-0.133 c-0.01-0.174-0.059-0.296-0.137-0.375c-0.082-0.078-0.201-0.12-0.359-0.12c-0.176,0-0.311,0.051-0.399,0.15 c-0.09,0.103-0.134,0.254-0.134,0.459v2.952c0,0.197,0.046,0.345,0.135,0.444c0.09,0.102,0.224,0.148,0.398,0.148 c0.181,0,0.314-0.046,0.404-0.148c0.092-0.099,0.136-0.247,0.136-0.444L94.818,45.838L94.818,45.838z M92.034,43.673 c0.113,0.114,0.245,0.17,0.399,0.17s0.288-0.057,0.397-0.17c0.111-0.108,0.167-0.242,0.167-0.395c0-0.16-0.054-0.296-0.165-0.404 c-0.109-0.111-0.243-0.165-0.399-0.165c-0.154,0-0.289,0.054-0.402,0.168c-0.112,0.113-0.166,0.244-0.166,0.401 C91.864,43.426,91.918,43.559,92.034,43.673z M92.969,44.74c0-0.204-0.045-0.355-0.133-0.459c-0.091-0.098-0.224-0.15-0.403-0.15 s-0.313,0.051-0.403,0.15c-0.087,0.103-0.135,0.254-0.135,0.459v2.952c0,0.197,0.048,0.345,0.135,0.444 c0.09,0.102,0.224,0.148,0.403,0.148s0.312-0.046,0.403-0.148c0.088-0.099,0.133-0.247,0.133-0.444V44.74z M90.676,44.359 c-0.299-0.193-0.729-0.293-1.288-0.293c-0.452,0-0.831,0.099-1.141,0.301c-0.308,0.2-0.462,0.436-0.462,0.706 c0,0.122,0.042,0.228,0.123,0.31c0.083,0.086,0.184,0.131,0.309,0.131c0.148,0,0.304-0.094,0.475-0.279 c0.054-0.059,0.095-0.099,0.12-0.125c0.08-0.068,0.171-0.119,0.273-0.154c0.103-0.033,0.213-0.05,0.337-0.05 c0.237,0,0.405,0.037,0.506,0.104c0.102,0.072,0.152,0.186,0.152,0.351c0,0.076-0.013,0.142-0.042,0.195 c-0.026,0.053-0.067,0.089-0.125,0.106c-0.075,0.026-0.241,0.052-0.495,0.083c-0.256,0.028-0.465,0.066-0.63,0.097 c-0.431,0.094-0.735,0.239-0.915,0.43c-0.178,0.196-0.269,0.481-0.269,0.848c0,0.396,0.105,0.702,0.32,0.919 c0.211,0.219,0.509,0.329,0.894,0.329c0.291,0,0.545-0.056,0.764-0.163c0.218-0.111,0.395-0.268,0.53-0.481 c0.004,0.221,0.052,0.386,0.146,0.489c0.095,0.105,0.242,0.155,0.443,0.155c0.144,0,0.258-0.037,0.338-0.11 c0.081-0.073,0.122-0.174,0.122-0.301c0-0.023-0.006-0.088-0.018-0.196c-0.013-0.102-0.02-0.2-0.02-0.278V45.2 C91.123,44.834,90.973,44.552,90.676,44.359z M90.093,46.628c0,0.28-0.082,0.501-0.248,0.663c-0.165,0.168-0.383,0.247-0.656,0.247 c-0.177,0-0.315-0.04-0.413-0.122c-0.098-0.089-0.148-0.205-0.148-0.355c0-0.143,0.037-0.254,0.113-0.336 c0.074-0.079,0.206-0.148,0.394-0.202c0.006-0.003,0.124-0.028,0.35-0.074c0.23-0.048,0.432-0.113,0.608-0.201 C90.093,46.248,90.093,46.628,90.093,46.628z M84.163,44.205c-0.181-0.094-0.396-0.139-0.653-0.139c-0.23,0-0.438,0.048-0.622,0.148 c-0.186,0.097-0.35,0.239-0.493,0.432c-0.016-0.17-0.068-0.298-0.154-0.387c-0.086-0.082-0.206-0.127-0.358-0.127 c-0.162,0-0.286,0.051-0.375,0.157c-0.086,0.105-0.13,0.253-0.13,0.452v2.952c0,0.197,0.044,0.345,0.133,0.444 c0.089,0.102,0.22,0.148,0.395,0.148c0.176,0,0.31-0.046,0.399-0.148c0.087-0.099,0.131-0.247,0.131-0.444v-1.929 c0-0.238,0.061-0.423,0.181-0.559c0.125-0.131,0.289-0.202,0.498-0.202c0.187,0,0.332,0.054,0.434,0.162 c0.1,0.105,0.152,0.256,0.152,0.45v2.078c0,0.197,0.044,0.351,0.129,0.447c0.086,0.099,0.217,0.144,0.39,0.144 c0.175,0,0.308-0.046,0.396-0.148c0.089-0.099,0.135-0.247,0.135-0.444v-1.934c0-0.236,0.062-0.421,0.184-0.557 c0.125-0.137,0.289-0.203,0.5-0.203c0.185,0,0.331,0.049,0.435,0.16c0.107,0.105,0.158,0.256,0.158,0.446v2.088 c0,0.194,0.045,0.341,0.137,0.444c0.089,0.1,0.22,0.148,0.393,0.148c0.178,0,0.311-0.046,0.398-0.144 c0.086-0.097,0.13-0.25,0.13-0.447v-2.304c0-0.406-0.118-0.728-0.35-0.964c-0.236-0.233-0.556-0.35-0.964-0.35 c-0.237,0-0.453,0.046-0.644,0.145c-0.192,0.099-0.358,0.242-0.496,0.432C84.498,44.45,84.342,44.302,84.163,44.205z M77.31,44.64 c-0.361,0.379-0.544,0.902-0.544,1.567c0,0.671,0.183,1.194,0.544,1.579c0.362,0.378,0.859,0.568,1.49,0.568 c0.628,0,1.127-0.19,1.488-0.568c0.362-0.385,0.544-0.908,0.544-1.579c0-0.666-0.182-1.189-0.544-1.567 c-0.361-0.384-0.861-0.574-1.488-0.574C78.168,44.066,77.672,44.256,77.31,44.64z M79.491,45.295 c0.164,0.216,0.245,0.521,0.245,0.913c0,0.402-0.081,0.708-0.245,0.925c-0.163,0.216-0.394,0.324-0.69,0.324 c-0.303,0-0.535-0.108-0.699-0.324c-0.163-0.217-0.244-0.523-0.244-0.925c0-0.392,0.081-0.696,0.244-0.913 c0.164-0.22,0.396-0.325,0.699-0.325C79.098,44.97,79.328,45.075,79.491,45.295z M73.581,48.221c0.497,0,0.883-0.039,1.159-0.114 c0.274-0.074,0.522-0.197,0.737-0.37c0.291-0.234,0.509-0.537,0.661-0.914c0.151-0.383,0.227-0.819,0.227-1.313 c0-0.916-0.204-1.602-0.615-2.051c-0.41-0.45-1.033-0.677-1.866-0.677H72.43c-0.254,0-0.432,0.063-0.529,0.179 c-0.098,0.122-0.147,0.343-0.147,0.679v3.723c0,0.33,0.048,0.557,0.147,0.678c0.097,0.119,0.275,0.178,0.529,0.178h1.151V48.221z M73.884,43.742c0.461,0,0.797,0.142,1.015,0.423c0.214,0.287,0.324,0.734,0.324,1.34c0,0.612-0.116,1.056-0.348,1.325 c-0.235,0.27-0.607,0.406-1.128,0.406h-0.899v-3.495L73.884,43.742L73.884,43.742z"/><path fill="#282827" d="M1.621,29.438c0-3.047,0.586-6.045,1.742-8.905c1.721-4.26,4.598-7.841,8.326-10.368 c3.303-2.236,7.122-3.526,11.047-3.716l0.991-0.017c1.769,0,3.55,0.228,5.304,0.68c9.407,2.451,16.294,11.193,16.741,21.271 l0.024,1.061c0,3.2-0.64,6.288-1.828,9.115c1.942-2.349,3.132-5.276,3.373-8.387c0.006-0.131,0.017-0.886,0.017-0.886l-0.018-1.002 c-0.032-0.619-0.089-1.278-0.175-2.008C45.821,14.948,37.494,5.973,26.916,4.447c-1.068-0.158-2.145-0.232-3.199-0.232l-1.04,0.027 C17.77,4.478,13.123,6.287,9.242,9.469c-2.343,1.926-4.305,4.266-5.831,6.944C1.177,20.336,0,24.836,0,29.41l0.025,1.202 c0.216,5,1.813,9.756,4.608,13.775h0.002c0.549,0.787,1.155,1.527,1.78,2.244C3.537,41.77,1.894,36.244,1.644,30.488L1.621,29.438z"/><path fill="#282827" d="M34.373,0c-0.454,0-0.903,0.021-1.352,0.046c-0.184,0.012-0.372,0.023-0.555,0.038 c-1.057,0.077-2.102,0.213-3.12,0.409C41.612,2.881,51.043,13.81,52.03,27.134c0.091,0.756,0.155,1.521,0.155,2.304 c0,0.785-0.064,1.555-0.155,2.309c-1.092,9.284-8.646,16.455-17.657,16.455c-1.064,0-2.108-0.103-3.115-0.291 c-0.535-0.098-1.055-0.227-1.568-0.375c-0.128-0.028-0.248-0.068-0.373-0.104c-0.449-0.137-0.892-0.302-1.327-0.479 c-0.275-0.11-0.548-0.221-0.818-0.346c-0.621-0.28-1.226-0.597-1.809-0.944c-3.095-1.889-5.592-4.71-7.149-8.106 c-1.126-2.455-1.777-5.203-1.777-8.117c0-2.904,0.651-5.654,1.777-8.116c1.557-3.399,4.054-6.228,7.147-8.119 c0.427-0.258,0.872-0.493,1.325-0.716c0.099-0.05,0.196-0.103,0.296-0.146c0.666-0.319,1.356-0.597,2.062-0.825l0.272-0.094 c-1.59-0.5-3.269-0.773-4.998-0.773H24.13c-3.222,0.033-6.23,0.969-8.823,2.554c-3.1,1.891-5.592,4.72-7.147,8.119 c-1.124,2.462-1.776,5.212-1.776,8.116c0,5.995,1.711,11.582,4.654,16.245c1.399,2.214,3.076,4.21,4.977,5.945 c0.706,0.649,1.434,1.25,2.195,1.82c1.681,1.25,3.505,2.304,5.441,3.143c0.703,0.301,1.419,0.58,2.149,0.824 c1.066,0.36,2.153,0.66,3.269,0.879l0.277,0.065c0.215,0.04,0.442,0.068,0.662,0.105l0.328,0.06 c1.318,0.202,2.659,0.321,4.036,0.321c15.376,0,27.812-13.245,27.812-29.409C62.186,13.286,49.75,0,34.373,0z M34.373,55.963 c-1.165,0-2.344-0.094-3.572-0.284l-0.561-0.094l-0.334-0.054c-0.075-0.019-0.204-0.045-0.204-0.045l-0.066-0.012 c-0.961-0.198-1.943-0.455-2.92-0.785c-2.449-0.826-4.727-2.017-6.787-3.551c-0.658-0.486-1.321-1.034-1.969-1.628 c-1.724-1.576-3.23-3.379-4.485-5.365C10.722,39.78,9.267,34.7,9.267,29.438c0-2.394,0.506-4.725,1.515-6.916 c1.316-2.888,3.403-5.256,6.025-6.861c0.814-0.494,1.671-0.881,2.554-1.208c-1.527,1.662-2.797,3.566-3.767,5.667 c-1.351,2.954-2.034,6.092-2.034,9.317c0,3.234,0.687,6.368,2.034,9.315c1.803,3.931,4.665,7.167,8.279,9.366 c0.415,0.252,0.854,0.491,1.303,0.723c0.264,0.133,0.524,0.267,0.796,0.39c0.162,0.077,0.331,0.139,0.495,0.207 c0.658,0.281,1.327,0.541,2.021,0.751l0.412,0.12c0.607,0.17,1.224,0.318,1.826,0.428c1.207,0.23,2.438,0.345,3.648,0.345 c10.422,0,19.245-8.163,20.519-18.988c0.117-0.996,0.172-1.835,0.172-2.657c0-0.787-0.052-1.595-0.159-2.54 C54.267,18.34,50.43,10.67,44.619,5.257c8.646,4.175,14.684,13.431,14.684,24.181C59.303,44.063,48.119,55.963,34.373,55.963z"/><linearGradient id="cpa" gradientUnits="userSpaceOnUse" x1=".767" y1="4.39" x2="50.803" y2="4.39" gradientTransform="matrix(1 0 0 -1 8.5 35)"><stop offset="0" stop-color="#fff"/><stop offset=".648" stop-color="#a3cd39"/></linearGradient><path fill="url(#cpa)" d="M34.373,55.963c-1.165,0-2.344-0.094-3.572-0.284l-0.561-0.094l-0.334-0.054 c-0.075-0.019-0.204-0.045-0.204-0.045l-0.066-0.012c-0.961-0.198-1.943-0.455-2.92-0.785c-2.449-0.826-4.727-2.017-6.787-3.551 c-0.658-0.486-1.321-1.034-1.969-1.628c-1.724-1.576-3.23-3.379-4.485-5.365C10.722,39.78,9.267,34.7,9.267,29.438 c0-2.394,0.506-4.725,1.515-6.916c1.316-2.888,3.403-5.256,6.025-6.861c0.814-0.494,1.671-0.881,2.554-1.208 c-1.527,1.662-2.797,3.566-3.767,5.667c-1.351,2.954-2.034,6.092-2.034,9.317c0,3.234,0.687,6.368,2.034,9.315 c1.803,3.931,4.665,7.167,8.279,9.366c0.415,0.252,0.854,0.491,1.303,0.723c0.264,0.133,0.524,0.267,0.796,0.39 c0.162,0.077,0.331,0.139,0.495,0.207c0.658,0.281,1.327,0.541,2.021,0.751l0.412,0.12c0.607,0.17,1.224,0.318,1.826,0.428 c1.207,0.23,2.438,0.345,3.648,0.345c10.422,0,19.245-8.163,20.519-18.988c0.117-0.996,0.172-1.835,0.172-2.657 c0-0.787-0.052-1.595-0.159-2.54C54.267,18.34,50.43,10.67,44.619,5.257c8.646,4.175,14.684,13.431,14.684,24.181 C59.303,44.063,48.119,55.963,34.373,55.963z"/></svg>
