<svg width="207" height="40" viewBox="0 0 207 40" fill="none" xmlns="http://www.w3.org/2000/svg">
<g clip-path="url(#clip0_425_6300)">
<path d="M26.3662 12.5071C26.8535 12.9944 27.0986 13.5972 27.0986 14.3099V36.9014C27.0986 37.6141 26.8535 38.2169 26.3662 38.7042C25.8789 39.1916 25.2761 39.4366 24.5634 39.4366C23.8507 39.4366 23.2479 39.1916 22.7606 38.7042C22.2732 38.2169 22.0282 37.6141 22.0282 36.9014V35.324C20.9014 36.7887 19.493 37.9352 17.8028 38.7606C16.1127 39.5859 14.2901 40 12.338 40C10.0845 40 8.01972 39.4451 6.14085 38.338C4.26197 37.231 2.76901 35.738 1.66197 33.8592C0.55493 31.9803 0 29.9155 0 27.662V14.3099C0 13.5972 0.24507 12.9944 0.732394 12.5071C1.21972 12.0197 1.82254 11.7747 2.53521 11.7747C3.24789 11.7747 3.8507 12.0197 4.33803 12.5071C4.82535 12.9944 5.07042 13.5972 5.07042 14.3099V26.4789C5.07042 28.0563 5.44507 29.5127 6.19718 30.8451C6.9493 32.1775 7.98028 33.2394 9.29578 34.0282C10.6113 34.8169 12.0366 35.2113 13.5775 35.2113C15.1183 35.2113 16.5352 34.8169 17.831 34.0282C19.1268 33.2394 20.1493 32.1775 20.9014 30.8451C21.6535 29.5127 22.0282 28.0563 22.0282 26.4789V14.3099C22.0282 13.5972 22.2732 12.9944 22.7606 12.5071C23.2479 12.0197 23.8507 11.7747 24.5634 11.7747C25.2761 11.7747 25.8789 12.0197 26.3662 12.5071Z" fill="#DF3042"/>
<path d="M56.8454 12.8732C58.7243 13.9802 60.2145 15.4732 61.3243 17.352C62.4314 19.2309 62.9863 21.2957 62.9863 23.5492V36.9013C62.9863 37.614 62.7412 38.2168 62.2539 38.7041C61.7666 39.1915 61.1638 39.4365 60.4511 39.4365C59.7384 39.4365 59.1356 39.1915 58.6483 38.7041C58.1609 38.2168 57.9159 37.614 57.9159 36.9013V24.7323C57.9159 23.1548 57.5412 21.6985 56.7891 20.3661C56.037 19.0337 55.0145 17.9717 53.7187 17.183C52.4229 16.3943 51.006 15.9999 49.4652 15.9999C47.9243 15.9999 46.499 16.3943 45.1835 17.183C43.868 17.9717 42.837 19.0337 42.0849 20.3661C41.3328 21.6985 40.9581 23.1548 40.9581 24.7323V36.9013C40.9581 37.614 40.713 38.2168 40.2257 38.7041C39.7384 39.1915 39.1356 39.4365 38.4229 39.4365C37.7102 39.4365 37.1074 39.1915 36.6201 38.7041C36.1328 38.2168 35.8877 37.614 35.8877 36.9013V14.3098C35.8877 13.5971 36.1328 12.9943 36.6201 12.507C37.1074 12.0196 37.7102 11.7746 38.4229 11.7746C39.1356 11.7746 39.7384 12.0196 40.2257 12.507C40.713 12.9943 40.9581 13.5971 40.9581 14.3098V15.8309C42.1215 14.4027 43.5412 13.276 45.2116 12.4506C46.8821 11.6253 48.6961 11.2112 50.6483 11.2112C52.9018 11.2112 54.9666 11.7661 56.8454 12.8732Z" fill="#DF3042"/>
<path d="M72.5635 7.1549C71.9635 6.5549 71.6621 5.82251 71.6621 4.95772C71.6621 4.09293 71.9635 3.36054 72.5635 2.76054C73.1635 2.16054 73.879 1.85913 74.7044 1.85913C75.5297 1.85913 76.2452 2.16054 76.8452 2.76054C77.4452 3.36054 77.7466 4.09293 77.7466 4.95772C77.7466 5.82251 77.4452 6.5549 76.8452 7.1549C76.2452 7.7549 75.5297 8.05631 74.7044 8.05631C73.879 8.05631 73.1635 7.7549 72.5635 7.1549ZM72.9015 38.7042C72.4142 38.2169 72.1692 37.6141 72.1692 36.9014V14.3098C72.1692 13.5972 72.4142 12.9943 72.9015 12.507C73.3889 12.0197 73.9917 11.7746 74.7044 11.7746C75.417 11.7746 76.0199 12.0197 76.5072 12.507C76.9945 12.9943 77.2396 13.5972 77.2396 14.3098V36.9014C77.2396 37.6141 76.9945 38.2169 76.5072 38.7042C76.0199 39.1915 75.417 39.4366 74.7044 39.4366C73.9917 39.4366 73.3889 39.1915 72.9015 38.7042Z" fill="#DF3042"/>
<path d="M98.7042 39.8311C98.2535 39.8311 97.8225 39.7099 97.4084 39.4649C96.9943 39.2198 96.676 38.8733 96.4507 38.4226L85.1831 15.2677C84.9943 14.9663 84.9014 14.5916 84.9014 14.1409C84.9014 13.6902 85.0225 13.2592 85.2676 12.8451C85.5126 12.4339 85.8591 12.1128 86.3098 11.8874C86.7605 11.6987 87.1352 11.6057 87.4366 11.6057C87.9239 11.6057 88.3746 11.7381 88.7887 12.0001C89.2028 12.2621 89.5014 12.6198 89.6901 13.0705L98.7605 31.7747L107.775 13.0705C108 12.5071 108.414 12.1128 109.014 11.8874C109.389 11.6987 109.746 11.6057 110.084 11.6057C110.535 11.6057 110.966 11.7381 111.38 12.0001C111.794 12.2621 112.113 12.6198 112.338 13.0705L121.352 31.7747L130.366 13.0705C130.592 12.6198 130.91 12.2621 131.324 12.0001C131.738 11.7381 132.189 11.6057 132.676 11.6057C133.428 11.6057 134.037 11.8592 134.507 12.3663C134.977 12.8733 135.211 13.4649 135.211 14.1409C135.211 14.5156 135.118 14.893 134.93 15.2677L123.662 38.3099C123.437 38.8733 123.022 39.3043 122.422 39.6057C122.121 39.755 121.766 39.8311 121.352 39.8311C120.865 39.8311 120.414 39.7099 120 39.4649C119.586 39.2198 119.287 38.8733 119.099 38.4226L110.028 19.9437L101.07 38.3099C100.845 38.8733 100.414 39.3043 99.7746 39.6057C99.4732 39.755 99.1183 39.8311 98.7042 39.8311Z" fill="#DF3042"/>
<path d="M160.423 13.1548C162.544 14.4506 164.226 16.1971 165.465 18.3943C166.704 20.5915 167.324 22.9858 167.324 25.5774V26.1971C167.287 26.8732 167.023 27.445 166.535 27.9154C166.048 28.3858 165.465 28.6196 164.789 28.6196H145.071C145.597 30.7239 146.668 32.3464 148.282 33.4929C149.896 34.6394 151.887 35.2112 154.254 35.2112C155.53 35.2112 156.893 35.0224 158.338 34.6478C159.783 34.2732 161.183 33.7464 162.535 33.0703C162.837 32.9577 163.118 32.9013 163.38 32.9013C164.02 32.9013 164.572 33.1351 165.042 33.6055C165.513 34.076 165.747 34.6478 165.747 35.3239C165.747 35.8112 165.606 36.2534 165.324 36.6478C165.042 37.0422 164.676 37.3323 164.225 37.521C160.845 39.1746 157.521 39.9999 154.254 39.9999C151.361 39.9999 148.817 39.4084 146.62 38.2253C144.423 37.0422 142.713 35.3605 141.493 33.183C140.273 31.0055 139.662 28.4703 139.662 25.5774C139.662 22.9858 140.282 20.5915 141.521 18.3943C142.761 16.1971 144.442 14.4506 146.564 13.1548C148.685 11.8591 150.986 11.2112 153.465 11.2112C155.944 11.2112 158.302 11.8591 160.423 13.1548ZM147.831 18.2816C146.217 19.8027 145.22 21.6901 144.845 23.9436H162.141C161.766 21.6901 160.761 19.8027 159.127 18.2816C157.493 16.7605 155.606 15.9999 153.465 15.9999C151.324 15.9999 149.445 16.7605 147.831 18.2816Z" fill="#DF3042"/>
<path d="M199.236 26.1465C199.171 26.2197 199.132 26.3127 199.123 26.4113C199.014 27.8423 198.602 29.1803 197.887 30.4225C197.042 31.8873 195.904 33.0507 194.478 33.9155C193.05 34.7803 191.492 35.2113 189.802 35.2113C188.112 35.2113 186.554 34.7803 185.126 33.9155C183.698 33.0507 182.571 31.8873 181.746 30.4225C180.921 28.9577 180.507 27.3606 180.507 25.6338C180.507 23.907 180.921 22.2535 181.746 20.7887C182.571 19.3239 183.698 18.1606 185.126 17.2958C186.554 16.431 188.112 16 189.802 16C190.129 16 190.45 16.0197 190.766 16.0507C190.87 16.062 190.977 16.0366 191.064 15.9775L195.585 12.8986C195.881 12.6986 195.836 12.2423 195.507 12.1099C194.033 11.5127 192.473 11.2113 190.816 11.2113C188.788 11.2113 186.901 11.662 185.154 12.5634C183.408 13.4648 181.895 14.7042 180.619 16.2817V2.53521C180.619 1.82254 180.374 1.21972 179.887 0.732394C179.4 0.24507 178.797 0 178.084 0C177.371 0 176.769 0.24507 176.281 0.732394C175.794 1.21972 175.549 1.82254 175.549 2.53521V36.9014C175.549 37.6141 175.794 38.2169 176.281 38.7042C176.769 39.1915 177.371 39.4366 178.084 39.4366C178.797 39.4366 179.4 39.1915 179.887 38.7042C180.374 38.2169 180.619 37.6141 180.619 36.9014V34.9296C181.895 36.507 183.408 37.7465 185.154 38.6479C186.901 39.5493 188.788 40 190.816 40C193.259 40 195.501 39.3521 197.549 38.0563C199.597 36.7606 201.219 35.0141 202.422 32.8169C203.625 30.6197 204.225 28.2254 204.225 25.6338C204.225 24.4056 204.09 23.2282 203.825 22.093C203.743 21.738 203.292 21.6254 203.05 21.8958L199.236 26.1437V26.1465Z" fill="#DF3042"/>
<path d="M206.124 12.9548C206.47 12.5689 206.473 11.9858 206.132 11.5971C205.932 11.3661 205.648 11.2478 205.36 11.2478C205.16 11.2478 204.96 11.307 204.786 11.4253L190.729 20.9943C190.566 20.9774 190.403 20.9689 190.239 20.9689C189.152 20.9689 188.093 21.3605 187.265 22.0844C185.383 23.7295 185.191 26.5886 186.836 28.4732C187.732 29.4957 188.986 30.0196 190.248 30.0196C191.304 30.0196 192.366 29.6506 193.225 28.9013C194.177 28.0675 194.738 26.8732 194.769 25.6055L206.124 12.9548Z" fill="#DF3042"/>
</g>
<defs>
<clipPath id="clip0_425_6300">
<rect width="206.386" height="40" fill="white"/>
</clipPath>
</defs>
</svg>
