<svg width="149" height="29" viewBox="0 0 149 29" fill="none" xmlns="http://www.w3.org/2000/svg">
<g clip-path="url(#clip0_17860_76135)">
<path d="M141.705 19.3144C140.283 19.3144 139.5 18.2369 139.403 16.5714H146.164C146.263 16.1303 146.311 15.6409 146.311 15.1516C146.311 12.3581 144.792 10.3019 141.705 10.3019C138.422 10.3019 136.364 12.4086 136.364 16.1807C136.316 19.7071 138.47 21.7654 141.606 21.7654C143.761 21.7654 145.721 20.982 146.309 18.7767L143.614 17.8463C143.272 19.0224 142.537 19.3165 141.703 19.3165L141.705 19.3144ZM141.51 12.6522C142.635 12.6522 143.223 13.4356 143.223 14.4648C143.272 14.5635 143.272 14.6601 143.223 14.8071H139.451C139.55 13.5343 140.333 12.6522 141.51 12.6522Z" fill="#051548"/>
<path d="M131.101 10.2494C129.534 10.2494 128.16 10.8858 127.574 12.5514V5.69385H124.39V21.5176H126.596L127.379 19.9508C127.772 20.9316 128.801 21.7633 130.662 21.7633C133.6 21.7633 135.316 19.3627 135.316 15.7375C135.316 12.1124 133.798 10.2494 131.103 10.2494H131.101ZM129.631 19.5097C128.7 19.5097 127.572 18.8733 127.572 17.0103V15.3931C127.572 13.7275 128.698 12.7971 129.874 12.7971C131.246 12.7971 132.128 13.7275 132.128 16.0316C132.128 18.3356 131 19.5097 129.629 19.5097H129.631Z" fill="#051548"/>
<path d="M117.837 10.2999C114.653 10.2999 112.546 12.3078 112.546 15.9833C112.546 19.6589 114.653 21.7634 117.837 21.7634C121.021 21.7634 123.128 19.7051 123.128 15.9833C123.128 12.2616 121.021 10.2999 117.837 10.2999ZM117.837 19.3144C116.367 19.3144 115.682 18.2853 115.682 15.9833C115.682 13.8284 116.369 12.7992 117.837 12.7992C119.305 12.7992 119.992 13.8284 119.992 15.9833C119.992 18.2853 119.305 19.3144 117.837 19.3144Z" fill="#051548"/>
<path d="M110.167 21.715C110.803 21.715 111.391 21.6163 111.98 21.421L112.127 18.7746C111.832 18.8733 111.538 18.9216 111.293 18.9216C110.705 18.9216 110.314 18.6759 110.314 17.9912V5.69385H107.13V18.9216C107.13 20.9799 108.6 21.715 110.167 21.715Z" fill="#051548"/>
<path d="M101.733 19.3144H98.5976C98.0095 19.3144 97.7155 19.0204 97.7155 18.6276C97.7155 18.2853 97.8625 17.9408 98.2552 17.7455C98.501 17.8442 99.0387 17.8925 99.5784 17.8925C102.372 17.8925 104.575 16.668 104.575 14.1203C104.575 13.3852 104.428 12.7005 104.086 12.1607C104.968 11.915 105.947 11.1799 106.094 10.1024L103.594 9.26862C103.349 10.1507 103.252 10.4448 102.76 10.9342C101.977 10.4931 100.9 10.2474 99.673 10.2474C96.7829 10.2474 94.8233 11.5706 94.8233 14.1182C94.8233 15.8825 95.6068 16.8129 97.077 17.401C95.8021 17.7434 95.2161 18.7242 95.2161 19.5559C95.2161 20.5368 95.9029 21.4168 96.9804 21.5155C95.0208 21.6626 94.0903 22.446 94.0903 23.7209C94.189 25.8275 96.5897 26.4639 99.2844 26.4639C102.42 26.4639 105.604 25.6805 105.604 22.5447C105.604 20.6334 104.233 19.3102 101.733 19.3102V19.3144ZM99.6751 12.4548C100.753 12.4548 101.341 12.9946 101.341 14.1686C101.389 15.2461 100.801 15.8342 99.6751 15.8342C98.5493 15.8342 98.0095 15.1474 98.0095 14.1686C98.0095 13.0912 98.5493 12.5031 99.6751 12.4548ZM99.6268 24.3594C97.9612 24.3594 97.0791 23.9666 97.0791 23.0845C97.0791 22.4481 97.7155 22.154 98.5976 22.154H101.292C102.223 22.154 102.664 22.3998 102.664 23.0845C102.664 23.9666 101.83 24.3594 99.6268 24.3594Z" fill="#051548"/>
<path d="M89.459 10.2494C87.8922 10.2494 86.5207 10.8858 85.9326 12.5514V5.69385H82.7485V21.5176H84.9539L85.7373 19.9508C86.13 20.9316 87.1592 21.7633 89.0201 21.7633C91.9605 21.7633 93.6744 19.3627 93.6744 15.7375C93.6744 12.1124 92.1558 10.2494 89.4611 10.2494H89.459ZM88.0392 19.5097C87.1088 19.5097 85.9809 18.8733 85.9809 17.0103V15.3931C85.9809 13.7275 87.1067 12.7971 88.2829 12.7971C89.6544 12.7971 90.5365 13.7275 90.5365 16.0316C90.4882 18.3839 89.3603 19.5097 88.0371 19.5097H88.0392Z" fill="#051548"/>
<path d="M76.8807 19.2892C75.4588 19.2892 74.6754 18.2117 74.5788 16.5462H81.3397C81.4384 16.1051 81.4867 15.6157 81.4867 15.1264C81.4867 12.3329 79.9682 10.2767 76.8807 10.2767C73.5979 10.2767 71.5396 12.3833 71.5396 16.1555C71.4913 19.6819 73.6462 21.7402 76.782 21.7402C78.9369 21.7402 80.8965 20.9568 81.4846 18.7515L78.7899 17.8211C78.4475 18.9972 77.7124 19.2913 76.8786 19.2913L76.8807 19.2892ZM76.6854 12.627C77.8111 12.627 78.3992 13.4104 78.3992 14.4396C78.4475 14.5383 78.4475 14.6349 78.3992 14.7819H74.6271C74.7258 13.5091 75.5092 12.627 76.6854 12.627Z" fill="#051548"/>
<path d="M59.7609 21.7381L61.4265 14.8785C61.9158 12.8706 62.0146 10.9593 62.0146 10.9593H62.1133C62.1133 10.9593 62.212 12.9189 62.6531 14.8785L64.2199 21.7381H68.9225L71.9595 7.82355H68.6768L67.1099 15.5149C66.7172 17.4745 66.5218 19.4341 66.5218 19.4341H66.4231C66.4231 19.4341 66.1774 17.4745 65.7363 15.4666L64.0225 7.82355H60.202L58.4881 15.5149C58.0954 17.4745 57.8517 19.4341 57.8517 19.4341H57.753C57.753 19.4341 57.5577 17.4745 57.1166 15.4666L55.4994 7.82355H52.0696L55.1549 21.7381H59.7609Z" fill="#051548"/>
</g>
<path fill-rule="evenodd" clip-rule="evenodd" d="M8.68378 2.62111L13.9023 13.3678L9.78944 21.8342C9.15916 23.138 9.19121 24.592 9.76274 25.8099L0.463416 6.65044C-0.642247 4.37019 0.297834 1.6178 2.56791 0.507179C4.838 -0.603437 7.57278 0.340855 8.68378 2.62111Z" fill="url(#paint0_linear_17860_76135)"/>
<path fill-rule="evenodd" clip-rule="evenodd" d="M19.2321 2.38556L19.2375 2.39092C18.5538 3.65177 18.463 5.21844 19.1413 6.60805L23.2489 15.0691L18.009 25.8587C16.9247 28.0961 14.2647 29.0511 12.0213 28.0317L11.8931 27.9727C9.62303 26.862 8.68295 24.1096 9.78861 21.8294L19.2321 2.38556Z" fill="url(#paint1_linear_17860_76135)"/>
<path fill-rule="evenodd" clip-rule="evenodd" d="M27.362 2.57849L32.5965 13.3627L28.489 21.8345C27.8587 23.1276 27.8908 24.5708 28.4516 25.7834L19.1416 6.60783C18.036 4.32758 18.9761 1.58054 21.2461 0.464562C23.5162 -0.646054 26.251 0.303603 27.362 2.57849Z" fill="url(#paint2_linear_17860_76135)"/>
<path fill-rule="evenodd" clip-rule="evenodd" d="M37.8367 2.5786L28.4893 21.8346C27.3836 24.1149 28.3237 26.8619 30.5938 27.9779C32.8639 29.0885 35.5987 28.1442 36.7097 25.864L46.0571 6.6133C47.1627 4.33305 46.2226 1.58602 43.9526 0.470035C41.6771 -0.645946 38.9423 0.303711 37.8367 2.5786Z" fill="url(#paint3_linear_17860_76135)"/>
<defs>
<linearGradient id="paint0_linear_17860_76135" x1="2.25173" y1="0.818775" x2="16.2739" y2="27.2254" gradientUnits="userSpaceOnUse">
<stop stop-color="#4BEAFB"/>
<stop offset="1" stop-color="#00D1FF"/>
</linearGradient>
<linearGradient id="paint1_linear_17860_76135" x1="12.7939" y1="27.4302" x2="25.2808" y2="0.818804" gradientUnits="userSpaceOnUse">
<stop stop-color="#00D1FF"/>
<stop offset="1" stop-color="#006AB7"/>
</linearGradient>
<linearGradient id="paint2_linear_17860_76135" x1="21.3913" y1="0.818823" x2="35.7205" y2="26.8161" gradientUnits="userSpaceOnUse">
<stop stop-color="#006AB7"/>
<stop offset="1" stop-color="#123D65"/>
</linearGradient>
<linearGradient id="paint3_linear_17860_76135" x1="30.7054" y1="27.7372" x2="43.704" y2="0.511733" gradientUnits="userSpaceOnUse">
<stop stop-color="#FF6A1B"/>
<stop offset="1" stop-color="#F61427"/>
</linearGradient>
<clipPath id="clip0_17860_76135">
<rect width="95.9304" height="20.7721" fill="white" transform="translate(52.0696 5.69385)"/>
</clipPath>
</defs>
</svg>
