<?xml version="1.0" encoding="utf-8"?>
<!-- Generator: Adobe Illustrator 21.0.2, SVG Export Plug-In . SVG Version: 6.00 Build 0)  -->
<svg version="1.1" id="Layer_1" xmlns="http://www.w3.org/2000/svg" xmlns:xlink="http://www.w3.org/1999/xlink" x="0px" y="0px"
	 viewBox="0 0 210 74" style="enable-background:new 0 0 210 74;" xml:space="preserve">
<style type="text/css">
	.st0{fill:#004C8A;}
	.st1{fill:#EC701C;}
</style>
<g>
	<polygon class="st0" points="5.5,2.8 35.7,2.8 35.7,11.2 16.8,37.5 36.3,37.5 36.3,45.9 5,45.9 5,37.5 23.9,11.2 5.5,11.2 	"/>
	<path class="st0" d="M82.9,24.4c0,3.1-0.5,5.9-1.5,8.6c-1,2.7-2.4,5.1-4.3,7.1c-1.9,2-4.2,3.6-6.9,4.8c-2.7,1.2-5.8,1.8-9.3,1.8
		c-3.5,0-6.6-0.6-9.4-1.8c-2.7-1.2-5.1-2.8-6.9-4.8c-1.9-2-3.3-4.4-4.3-7.1c-1-2.7-1.5-5.6-1.5-8.6c0-3.1,0.5-5.9,1.5-8.6
		c1-2.7,2.4-5.1,4.3-7.1c1.9-2,4.2-3.6,6.9-4.8C54.3,2.6,57.4,2,60.9,2c3.5,0,6.6,0.6,9.3,1.8c2.7,1.2,5,2.8,6.9,4.8
		c1.9,2,3.3,4.4,4.3,7.1C82.4,18.4,82.9,21.3,82.9,24.4 M60.9,38.3c1.9,0,3.5-0.3,4.9-1c1.4-0.7,2.6-1.7,3.6-2.9
		c1-1.2,1.7-2.7,2.2-4.4c0.5-1.7,0.7-3.6,0.7-5.6c0-2-0.2-3.9-0.7-5.6c-0.5-1.7-1.2-3.2-2.2-4.4c-1-1.2-2.2-2.2-3.6-2.9
		c-1.4-0.7-3.1-1-4.9-1c-1.9,0-3.6,0.3-5,1c-1.4,0.7-2.6,1.7-3.6,2.9c-1,1.2-1.7,2.7-2.2,4.4c-0.5,1.7-0.7,3.6-0.7,5.6
		c0,2,0.2,3.9,0.7,5.6c0.5,1.7,1.2,3.2,2.2,4.4c1,1.2,2.2,2.2,3.6,2.9C57.3,37.9,59,38.3,60.9,38.3"/>
	<polygon class="st0" points="116.6,45.9 98.8,20.2 98.8,45.9 88.6,45.9 88.6,2.8 98.8,2.8 116.6,28.5 116.6,2.8 126.9,2.8 
		126.9,45.9 	"/>
	<polygon class="st0" points="134.1,2.8 161,2.8 161,11.2 144.7,11.2 144.7,19.9 160.2,19.9 160.2,28.3 144.7,28.3 144.7,37.5 
		161.2,37.5 161.2,45.9 134.1,45.9 	"/>
	<path class="st0" d="M199.8,16.5c0,2.9-0.8,5.4-2.4,7.6c-1.6,2.2-3.9,3.8-6.8,4.9l14.2,17h-13.1l-11.9-15h-1.9v15h-10.6V2.8H181
		c2.7,0,5.2,0.3,7.4,0.8c2.3,0.6,4.3,1.4,6,2.5c1.7,1.1,3,2.5,4,4.2C199.3,12.1,199.8,14.1,199.8,16.5 M189.6,16.7
		c0-1.9-0.8-3.4-2.3-4.3c-1.5-0.9-3.6-1.4-6.3-1.4h-3v12.1h2.6c2.9,0,5.1-0.6,6.7-1.7C188.8,20.3,189.6,18.7,189.6,16.7"/>
	<path class="st1" d="M6.5,71.9v-3.4c0-0.1,0-0.1-0.1-0.2l-3.7-5.2h1.2c1.1,1.5,2.7,3.8,3.1,4.5c0.4-0.7,2-3,3.1-4.5h1.1l-3.7,5.2
		c0,0.1-0.1,0.1-0.1,0.2v3.4H6.5z"/>
	<path class="st1" d="M15.2,68v3.9h-1v-8.8h4c1.7,0,3,0.8,3,2.4c0,1-0.5,1.8-1.6,2.1c0.6,0.2,1.4,0.6,1.4,2.2v0.4
		c0,0.7,0,1.5,0.1,1.8h-1C20,71.5,20,70.8,20,70.2v-0.3c0-1.4-0.6-1.8-2.2-1.8H15.2z M15.2,67.2H18c1.5,0,2.2-0.5,2.2-1.6
		c0-1-0.7-1.5-2.2-1.5h-2.8V67.2z"/>
	<rect x="25.2" y="63.1" class="st1" width="1" height="8.8"/>
	<polygon class="st1" points="32.9,64 29.4,64 29.4,63.1 37.3,63.1 37.3,64 33.9,64 33.9,71.9 32.9,71.9 	"/>
	<polygon class="st1" points="43.3,64 39.8,64 39.8,63.1 47.7,63.1 47.7,64 44.3,64 44.3,71.9 43.3,71.9 	"/>
	<path class="st1" d="M50.8,69.1l-1.2,2.9h-1l3.8-8.8h1.2l4,8.8h-1.1l-1.3-2.9H50.8z M54.8,68.2c-1.1-2.5-1.7-3.7-1.9-4.3h0
		c-0.2,0.6-0.8,2.1-1.8,4.3H54.8z M51.3,60.8h0.9v1.4h-0.9V60.8z M53.9,60.8h0.9v1.4h-0.9V60.8z"/>
	<path class="st1" d="M64.1,68.9c0,2.1-0.7,3.2-2.6,3.2c-0.5,0-0.9,0-1.2-0.1v-0.9c0.3,0.1,0.7,0.1,1.2,0.1c1.3,0,1.6-1.1,1.6-2.2
		v-5.9h1V68.9z"/>
	<path class="st1" d="M69.3,69.1l-1.2,2.9h-1l3.8-8.8H72l4,8.8h-1.1l-1.3-2.9H69.3z M73.3,68.2c-1.1-2.5-1.7-3.7-1.9-4.3h0
		c-0.2,0.6-0.8,2.1-1.8,4.3H73.3z M69.8,60.8h0.9v1.4h-0.9V60.8z M72.4,60.8h0.9v1.4h-0.9V60.8z"/>
	<path class="st1" d="M79.3,71.9v-8.8h1.2c1.8,2.5,5.2,6.7,5.7,7.6h0c-0.1-1.2-0.1-2.5-0.1-3.9v-3.6H87v8.8h-1.1
		c-1.4-1.9-5.1-6.7-5.7-7.8h0c0.1,1.1,0.1,2.4,0.1,3.9v3.8H79.3z"/>
	<polygon class="st1" points="99,64 95.6,64 95.6,63.1 103.4,63.1 103.4,64 100,64 100,71.9 99,71.9 	"/>
	<path class="st1" d="M107.6,63.1v5c0,2.4,1.5,3.1,2.9,3.1c1.7,0,2.8-0.8,2.8-3.1v-5h1v5c0,2.9-1.5,4-3.8,4c-2.3,0-3.8-1.2-3.8-3.9
		v-5.1H107.6z"/>
	<path class="st1" d="M118.5,63.1h1v4.5c1.4-1.1,3.8-3.1,5.5-4.5h1.3l-4.6,3.8l4.8,5h-1.3l-4.3-4.5l-1.4,1.1v3.4h-1V63.1z"/>
	<rect x="129.5" y="63.1" class="st1" width="1" height="8.8"/>
	<path class="st1" d="M140.2,71.9v-8.8h1.2c1.8,2.5,5.2,6.7,5.7,7.6h0c-0.1-1.2-0.1-2.5-0.1-3.9v-3.6h0.9v8.8h-1.1
		c-1.4-1.9-5.1-6.7-5.7-7.8h0c0.1,1.1,0.1,2.4,0.1,3.9v3.8H140.2z"/>
	<polygon class="st1" points="158.7,67.7 153.3,67.7 153.3,71.1 159.2,71.1 159.1,71.9 152.3,71.9 152.3,63.1 159,63.1 159,64 
		153.3,64 153.3,66.9 158.7,66.9 	"/>
	<polygon class="st1" points="165.3,64 161.9,64 161.9,63.1 169.8,63.1 169.8,64 166.3,64 166.3,71.9 165.3,71.9 	"/>
	<rect x="173" y="63.1" class="st1" width="1" height="8.8"/>
	<path class="st1" d="M178.6,69.4c0.3,1.1,1.1,1.9,2.9,1.9c1.8,0,2.6-0.7,2.6-1.6c0-0.9-0.5-1.5-2.9-1.9c-2.5-0.4-3.2-1.2-3.2-2.4
		c0-1.5,1.4-2.4,3.3-2.4c2.8,0,3.4,1.5,3.5,2.3h-1c-0.2-0.6-0.6-1.5-2.6-1.5c-1.3,0-2.2,0.5-2.2,1.4c0,0.8,0.4,1.3,2.5,1.6
		c3.1,0.5,3.6,1.5,3.6,2.7c0,1.4-1.1,2.6-3.7,2.6c-2.4,0-3.6-1.1-3.9-2.7H178.6z"/>
	<path class="st1" d="M189.2,69.4c0.3,1.1,1.1,1.9,2.9,1.9c1.8,0,2.6-0.7,2.6-1.6c0-0.9-0.5-1.5-2.9-1.9c-2.5-0.4-3.2-1.2-3.2-2.4
		c0-1.5,1.4-2.4,3.3-2.4c2.8,0,3.4,1.5,3.5,2.3h-1c-0.2-0.6-0.6-1.5-2.6-1.5c-1.3,0-2.2,0.5-2.2,1.4c0,0.8,0.4,1.3,2.5,1.6
		c3.1,0.5,3.6,1.5,3.6,2.7c0,1.4-1.1,2.6-3.7,2.6c-2.4,0-3.6-1.1-3.9-2.7H189.2z"/>
	<path class="st1" d="M200.9,69.1l-1.2,2.9h-1l3.8-8.8h1.2l4,8.8h-1.1l-1.3-2.9H200.9z M204.9,68.2c-1.1-2.5-1.7-3.7-1.9-4.3h0
		c-0.2,0.6-0.8,2.1-1.8,4.3H204.9z M201.3,60.8h0.9v1.4h-0.9V60.8z M203.9,60.8h0.9v1.4h-0.9V60.8z"/>
</g>
</svg>
